<?xml version="1.0" encoding="UTF-8" standalone="no"?>
<svg
   xmlns:dc="http://purl.org/dc/elements/1.1/"
   xmlns:cc="http://creativecommons.org/ns#"
   xmlns:rdf="http://www.w3.org/1999/02/22-rdf-syntax-ns#"
   xmlns:svg="http://www.w3.org/2000/svg"
   xmlns="http://www.w3.org/2000/svg"
   xmlns:sodipodi="http://sodipodi.sourceforge.net/DTD/sodipodi-0.dtd"
   xmlns:inkscape="http://www.inkscape.org/namespaces/inkscape"
   viewBox="0 0 793.7007874015749 1122.5196850393702"
   width="793.7007874015749"
   height="1122.5196850393702"
   version="1.1"
   id="svg1305"
   sodipodi:docname="weather-station.svg"
   inkscape:version="1.0.1 (1.0.1+r74)">
  <metadata
     id="metadata1309">
    <rdf:RDF>
      <cc:Work
         rdf:about="">
        <dc:format>image/svg+xml</dc:format>
        <dc:type
           rdf:resource="http://purl.org/dc/dcmitype/StillImage" />
        <dc:title></dc:title>
      </cc:Work>
    </rdf:RDF>
  </metadata>
  <sodipodi:namedview
     pagecolor="#000000"
     bordercolor="#666666"
     borderopacity="1"
     objecttolerance="10"
     gridtolerance="10"
     guidetolerance="10"
     inkscape:pageopacity="0"
     inkscape:pageshadow="2"
     inkscape:window-width="1880"
     inkscape:window-height="1080"
     id="namedview1307"
     showgrid="false"
     showborder="false"
     inkscape:snap-object-midpoints="true"
     inkscape:snap-to-guides="false"
     inkscape:snap-grids="false"
     inkscape:snap-midpoints="true"
     inkscape:zoom="1.6070988"
     inkscape:cx="153.30444"
     inkscape:cy="961.8178"
     inkscape:window-x="40"
     inkscape:window-y="0"
     inkscape:window-maximized="1"
     inkscape:current-layer="g1265" />
  <defs
     id="defs905">
    <marker
       id="DistanceX"
       orient="auto"
       refX="0.0"
       refY="0.0"
       style="overflow:visible">
      <path
         d="M 3,-3 L -3,3 M 0,-5 L  0,5"
         style="stroke:#000000; stroke-width:0.5"
         id="path885" />
    </marker>
    <pattern
       id="Hatch"
       patternUnits="userSpaceOnUse"
       width="8"
       height="8"
       x="0"
       y="0">
      <path
         d="M8 4 l-4,4"
         stroke="#000000"
         stroke-width="0.25"
         linecap="square"
         id="path888" />
      <path
         d="M6 2 l-4,4"
         stroke="#000000"
         stroke-width="0.25"
         linecap="square"
         id="path890" />
      <path
         d="M4 0 l-4,4"
         stroke="#000000"
         stroke-width="0.25"
         linecap="square"
         id="path892" />
    </pattern>
    <symbol
       id="*Model_Space" />
    <symbol
       id="*Paper_Space" />
    <symbol
       id="FIGURE_CIRCLE" />
    <symbol
       id="FIGURE_SQUARE" />
    <symbol
       id="FIGURE_HEX" />
    <symbol
       id="FIGURE_OCT" />
    <symbol
       id="FIGURE_OBLONG" />
    <symbol
       id="FIGURE_TRI" />
    <symbol
       id="FIGURE_CROSS" />
    <symbol
       id="FIGURE_DIAMOND" />
  </defs>
  <g
     inkscape:groupmode="layer"
     inkscape:label="BOTTOM"
     id="g943">
    <path
       d="M -126.047244,1079.055118 -126.047244,769.133858"
       style="fill:none;stroke:#5F984C"
       id="path927" />
    <path
       d="M -112.818898,755.905512 A 13.228346,13.228346 -0.000000 0 0 -126.047244,769.133858"
       style="fill:none;stroke:#5F984C"
       id="path929" />
    <path
       d="M -112.818898,755.905512 390.425197,755.905512"
       style="fill:none;stroke:#5F984C"
       id="path931" />
    <path
       d="M 403.653543,769.133858 A 13.228346,13.228346 -0.000000 0 0 390.425197,755.905512"
       style="fill:none;stroke:#5F984C"
       id="path933" />
    <path
       d="M 403.653543,1079.055118 403.653543,769.133858"
       style="fill:none;stroke:#5F984C"
       id="path935" />
    <path
       d="M 390.425197,1092.283465 A 13.228346,13.228346 -0.000000 0 0 403.653543,1079.055118"
       style="fill:none;stroke:#5F984C"
       id="path937" />
    <path
       d="M -112.818898,1092.283465 390.425197,1092.283465"
       style="fill:none;stroke:#5F984C"
       id="path939" />
    <path
       d="M -126.047244,1079.055118 A 13.228346,13.228346 -0.000000 0 0 -112.818898,1092.283465"
       style="fill:none;stroke:#5F984C"
       id="path941" />
  </g>
  <g
     inkscape:groupmode="layer"
     inkscape:label="LOGO"
     id="g973">
    <path
       d="M 397.169673,519.790613 L 396.893783,519.884533 L 396.744097,519.924155 L 396.588542,519.957908 L 396.434454,519.984323 L 396.283301,520.003401 L 396.140954,520.015141 L 396.008878,520.018076 L 395.891478,520.012206 L 394.638231,519.937363 L 394.131942,519.928558 L 393.697561,519.940298 L 393.324816,519.974051 L 393.009302,520.026881 L 392.740749,520.101723 L 392.511819,520.200046 L 392.316641,520.318914 L 392.075971,520.481807 L 391.961505,520.541974 L 391.851443,520.588934 L 391.742847,520.624154 L 391.637187,520.644699 L 391.534462,520.654972 L 391.431737,520.653504 L 391.329012,520.641764 L 390.799243,520.615349 L 390.496937,520.644699 L 390.185827,520.698997 L 389.882054,520.773840 L 389.595891,520.866292 L 389.342013,520.974888 L 389.130692,521.093755 L 388.979539,521.221428 L 388.816646,521.357906 L 388.719791,521.410736 L 388.609729,521.454761 L 388.480588,521.488514 L 388.329436,521.513461 L 388.154803,521.531071 L 387.952287,521.541344 L 387.718954,521.544279 L 386.876608,521.602979 L 386.462772,521.671951 L 386.060676,521.767339 L 385.676190,521.884739 L 385.315184,522.024152 L 384.983529,522.182642 L 384.688561,522.357275 L 384.433215,522.549518 L 384.161727,522.756436 L 384.022314,522.838616 L 383.875564,522.909056 L 383.718541,522.969224 L 383.549778,523.019119 L 383.364873,523.061677 L 383.160890,523.098364 L 382.934895,523.127714 L 381.653765,523.419747 L 381.168021,523.673625 L 380.786470,523.999411 L 380.506177,524.398572 L 380.330077,524.869640 L 380.255234,525.414084 L 380.283117,526.030435 L 380.413725,526.721629 L 380.490035,527.094375 L 380.506177,527.246995 L 380.507645,527.387875 L 380.491502,527.522886 L 380.459217,527.659363 L 380.406387,527.804646 L 380.335947,527.966072 L 380.243494,528.150977 L 380.002824,528.705693 L 379.938254,528.953701 L 379.913306,529.192904 L 379.925046,529.435042 L 379.976409,529.687453 L 380.067394,529.960408 L 380.195067,530.262714 L 380.363830,530.603174 L 380.570747,531.022880 L 380.644123,531.196046 L 380.698420,531.351601 L 380.733640,531.493949 L 380.751250,531.627491 L 380.752718,531.755164 L 380.736575,531.884304 L 380.704290,532.016380 L 380.652928,532.490383 L 380.673473,532.747196 L 380.724835,533.018684 L 380.805548,533.298977 L 380.915611,533.589543 L 381.055023,533.887446 L 381.222319,534.192687 L 381.418964,534.502330 L 381.627350,534.848660 L 381.710997,535.011553 L 381.778502,535.170044 L 381.834268,535.328534 L 381.876825,535.485557 L 381.906175,535.646982 L 381.923785,535.811342 L 381.929655,535.983040 L 381.982485,536.581781 L 382.049990,536.863542 L 382.145378,537.136497 L 382.267181,537.400648 L 382.416866,537.657461 L 382.594434,537.908404 L 382.801352,538.156412 L 383.036152,538.401485 L 383.276823,538.655363 L 383.372211,538.777166 L 383.452923,538.896033 L 383.518961,539.013434 L 383.568856,539.126431 L 383.604076,539.239429 L 383.626089,539.348024 L 383.631959,539.456620 L 383.747891,540.121398 L 383.890239,540.461859 L 384.085417,540.805255 L 384.331958,541.148651 L 384.628393,541.489111 L 384.973256,541.825169 L 385.362145,542.152423 L 385.795058,542.470871 L 385.988768,542.619088 L 386.076819,542.699801 L 386.156064,542.780514 L 386.223569,542.859759 L 386.279334,542.934602 L 386.321891,543.005042 L 386.348307,543.066677 L 386.357112,543.118039 L 386.468642,543.537745 L 386.593380,543.796026 L 386.754805,544.068981 L 386.939710,544.341937 L 387.140758,544.603152 L 387.350611,544.837953 L 387.557529,545.034598 L 387.752707,545.178414 L 387.986040,545.309021 L 388.118115,545.376526 L 388.257528,545.442564 L 388.398408,545.505667 L 388.540756,545.565834 L 388.677234,545.620132 L 388.807841,545.667092 L 388.928177,545.706715 L 389.211405,545.819712 L 389.330273,545.887218 L 389.435933,545.966463 L 389.532788,546.058915 L 389.622306,546.166043 L 389.704486,546.292248 L 389.785198,546.438999 L 389.864444,546.609229 L 390.169684,547.111115 L 390.370732,547.337110 L 390.602598,547.545496 L 390.865281,547.736271 L 391.157314,547.906502 L 391.477229,548.057654 L 391.823560,548.186795 L 392.197773,548.293922 L 393.015172,548.499373 L 391.772197,549.281552 L 389.513710,550.942765 L 388.542223,551.832072 L 387.673462,552.762469 L 386.904490,553.738358 L 386.232374,554.764143 L 385.654178,555.838355 L 385.168434,556.968332 L 384.773676,558.152607 L 384.493383,559.267909 L 384.368645,559.887196 L 384.257115,560.527027 L 384.161727,561.171261 L 384.082482,561.805222 L 384.022314,562.412768 L 383.985627,562.977757 L 383.972419,563.482578 L 383.899044,564.129747 L 383.810994,564.446727 L 383.692126,564.750500 L 383.545376,565.036663 L 383.375146,565.300814 L 383.182903,565.535614 L 382.973050,565.738130 L 382.747054,565.901023 L 382.111626,566.383831 L 381.719802,566.738967 L 381.300096,567.145465 L 380.873053,567.585716 L 380.454815,568.042109 L 380.061524,568.495568 L 379.713726,568.928481 L 379.426095,569.323239 L 378.237418,571.313173 L 377.761947,572.309608 L 377.364254,573.314847 L 377.042870,574.334762 L 376.794862,575.372287 L 376.618762,576.434759 L 376.516037,577.526581 L 376.480817,578.653623 L 376.634905,580.824060 L 376.825680,581.876260 L 377.094233,582.906447 L 377.437629,583.914621 L 377.855867,584.897848 L 378.350416,585.860530 L 378.919807,586.798264 L 379.562573,587.712519 L 379.944124,588.254027 L 380.099679,588.502035 L 380.236157,588.739771 L 380.353557,588.970169 L 380.456282,589.199099 L 380.544332,589.429497 L 380.620643,589.664298 L 380.686680,589.909371 L 380.821690,590.440607 L 380.925883,590.807483 L 381.049153,591.227188 L 381.188566,591.689452 L 381.338252,592.182533 L 381.498209,592.696159 L 381.662570,593.218590 L 381.826930,593.739553 L 382.165923,594.797623 L 382.330283,595.327392 L 382.484371,595.843953 L 382.628187,596.332631 L 382.755859,596.783154 L 382.865922,597.185250 L 382.955440,597.525711 L 383.020010,597.792797 L 383.532168,599.564073 L 383.879967,600.435769 L 384.286465,601.297194 L 384.750196,602.142475 L 385.269692,602.970147 L 385.842018,603.777274 L 386.465707,604.560920 L 387.140758,605.318152 L 388.367591,606.506829 L 389.016227,607.061545 L 389.676603,607.578106 L 390.335512,608.052110 L 390.984148,608.474750 L 391.610772,608.837224 L 392.206578,609.132192 L 392.759827,609.353785 L 393.028380,609.485860 L 393.220623,609.594455 L 393.442216,609.726530 L 393.687289,609.880618 L 393.949972,610.050849 L 394.224395,610.234286 L 394.504688,610.429464 L 394.784981,610.630512 L 396.578270,611.857345 L 397.430889,612.398853 L 398.262963,612.897804 L 399.077427,613.355665 L 399.881619,613.778306 L 400.678473,614.165727 L 401.475327,614.523798 L 402.278051,614.853986 L 402.731509,615.065306 L 402.972180,615.198849 L 403.220188,615.350002 L 403.472598,615.515830 L 403.727944,615.694865 L 403.983289,615.887108 L 404.238635,616.089623 L 404.491045,616.300944 L 405.574063,617.216665 L 406.062741,617.599684 L 406.532342,617.941612 L 406.996073,618.254190 L 407.465674,618.544756 L 407.952885,618.820646 L 408.473848,619.092134 L 409.037370,619.366557 L 410.545963,620.010791 L 411.269441,620.258799 L 411.988518,620.459847 L 412.717867,620.619805 L 413.467761,620.738673 L 414.254342,620.819385 L 415.087884,620.866345 L 415.984528,620.881020 L 418.935677,620.677037 L 420.312195,620.405549 L 421.635882,620.013726 L 422.919947,619.498633 L 424.177597,618.854399 L 425.419105,618.076622 L 426.657677,617.157965 L 427.903587,616.096961 L 428.305683,615.768240 L 428.524341,615.608282 L 428.748869,615.454194 L 428.977799,615.307444 L 429.206730,615.172434 L 429.431258,615.050631 L 429.651383,614.943503 L 429.861236,614.853986 L 431.202534,614.280192 L 431.940688,613.923589 L 432.703789,613.528831 L 433.478631,613.107657 L 434.253473,612.663004 L 435.013639,612.205143 L 435.744456,611.741412 L 436.434182,611.277681 L 437.209023,610.756718 L 437.625794,610.488164 L 438.049903,610.222546 L 438.468141,609.965733 L 438.874639,609.723595 L 439.256190,609.503470 L 439.603988,609.309760 L 439.907761,609.149802 L 441.042141,608.530516 L 441.574845,608.203262 L 442.088471,607.859867 L 442.588889,607.497393 L 443.081970,607.109973 L 443.570649,606.697604 L 444.060795,606.254418 L 444.555343,605.778948 L 446.107961,604.060502 L 446.769805,603.171195 L 447.358274,602.251070 L 447.879237,601.297194 L 448.335631,600.297824 L 448.731857,599.250027 L 449.070850,598.144997 L 449.357013,596.975397 L 449.512568,596.329696 L 449.616761,595.939340 L 449.734161,595.516699 L 449.863301,595.074981 L 450.001247,594.622990 L 450.143594,594.172467 L 450.287410,593.732216 L 450.429757,593.313978 L 450.712986,592.476033 L 450.847996,592.056328 L 450.977136,591.645427 L 451.094536,591.256538 L 451.198729,590.895533 L 451.286779,590.572682 L 451.354284,590.298259 L 451.401244,590.079601 L 451.521580,589.612935 L 451.597890,589.394277 L 451.685940,589.180022 L 451.787198,588.970169 L 451.901663,588.761783 L 452.030803,588.551931 L 452.176086,588.339143 L 452.337511,588.120485 L 454.130800,585.255919 L 454.779436,583.766403 L 455.262245,582.244603 L 455.577758,580.696387 L 455.724508,579.127627 L 455.701028,577.539788 L 455.510253,575.938743 L 455.146312,574.328892 L 454.397885,572.305205 L 453.898934,571.285291 L 453.331011,570.288856 L 452.710257,569.332044 L 452.048413,568.438335 L 451.355752,567.626806 L 450.648415,566.915067 L 449.936676,566.326598 L 449.183847,565.694105 L 448.894749,565.381527 L 448.658481,565.061611 L 448.472109,564.731423 L 448.334163,564.382157 L 448.238776,564.010879 L 448.183010,563.611718 L 448.165400,563.175870 L 448.072948,561.590966 L 447.968755,560.777970 L 447.826407,559.963506 L 447.648839,559.154912 L 447.437519,558.360992 L 447.193913,557.589086 L 446.919490,556.846529 L 446.615717,556.143596 L 445.692658,554.429552 L 445.161422,553.640036 L 444.577356,552.888674 L 443.937524,552.171065 L 443.236058,551.479871 L 442.470022,550.812157 L 441.635012,550.160586 L 440.725161,549.520755 L 440.230612,549.192034 L 440.010487,549.040881 L 439.813841,548.902936 L 439.643611,548.781133 L 439.504198,548.678408 L 439.400005,548.597695 L 439.333968,548.541930 L 439.311955,548.515515 L 439.357448,548.483230 L 439.410278,548.461218 L 439.482186,548.436270 L 439.570236,548.406920 L 439.672961,548.377570 L 439.785959,548.345285 L 439.910696,548.311532 L 440.044239,548.277780 L 440.722226,548.035642 L 441.031869,547.881554 L 441.318032,547.706921 L 441.576312,547.514678 L 441.808178,547.304825 L 442.009226,547.080297 L 442.176521,546.841094 L 442.308596,546.591619 L 442.467087,546.270236 L 442.552202,546.144031 L 442.644654,546.035435 L 442.750315,545.941515 L 442.870650,545.859335 L 443.011530,545.783025 L 443.174423,545.711117 L 443.363731,545.637742 L 444.059327,545.351579 L 444.358698,545.178414 L 444.630186,544.984703 L 444.875259,544.767513 L 445.093917,544.525375 L 445.287627,544.259757 L 445.459325,543.966256 L 445.611945,543.646341 L 445.796851,543.258920 L 445.901043,543.082819 L 446.012574,542.916992 L 446.131441,542.759969 L 446.259114,542.614686 L 446.392657,542.478208 L 446.535005,542.350535 L 446.684690,542.233135 L 447.321586,541.698964 L 447.590139,541.426009 L 447.823472,541.148651 L 448.021585,540.868357 L 448.185945,540.588064 L 448.312151,540.306304 L 448.401668,540.026011 L 448.454499,539.747185 L 448.520536,539.397919 L 448.570431,539.239429 L 448.633534,539.086809 L 448.711312,538.938591 L 448.805232,538.788906 L 448.918229,538.637753 L 449.050305,538.482198 L 449.204393,538.316370 L 449.632903,537.815951 L 449.797264,537.576748 L 449.932274,537.336078 L 450.036467,537.093940 L 450.115712,536.842997 L 450.168542,536.580314 L 450.199360,536.301488 L 450.209632,536.000650 L 450.233112,535.680735 L 450.263930,535.525179 L 450.310890,535.366689 L 450.371057,535.206731 L 450.448835,535.040903 L 450.542755,534.866270 L 450.655753,534.682833 L 450.787828,534.484720 L 451.151769,533.866901 L 451.288247,533.558725 L 451.395374,533.254952 L 451.470217,532.959984 L 451.512775,532.676756 L 451.521580,532.408203 L 451.496632,532.158727 L 451.434997,531.931265 L 451.382167,531.724347 L 451.376297,531.623089 L 451.386569,531.520364 L 451.411517,531.411768 L 451.454075,531.297303 L 451.514242,531.171098 L 451.592020,531.031685 L 451.690342,530.876130 L 452.019063,530.264181 L 452.121788,529.960408 L 452.186358,529.655167 L 452.209839,529.349927 L 452.195164,529.044686 L 452.139398,528.736511 L 452.045478,528.428335 L 451.911935,528.117224 L 451.746108,527.734206 L 451.693277,527.580118 L 451.656590,527.440706 L 451.638980,527.313033 L 451.636045,527.189763 L 451.650720,527.065025 L 451.680070,526.934417 L 451.724095,526.789134 L 451.864975,526.218276 L 451.897260,525.921840 L 451.903130,525.625404 L 451.884053,525.333371 L 451.841495,525.051611 L 451.775458,524.784525 L 451.684472,524.539452 L 451.571475,524.320794 L 451.239819,523.902556 L 451.037304,523.727923 L 450.806906,523.575303 L 450.548625,523.444695 L 450.260995,523.334632 L 449.941079,523.246582 L 449.590346,523.177609 L 449.204393,523.127714 L 448.796427,523.071949 L 448.615924,523.035262 L 448.451564,522.991237 L 448.300411,522.939874 L 448.163933,522.881174 L 448.039195,522.813669 L 447.926197,522.737359 L 447.824940,522.650776 L 447.305444,522.245745 L 447.031021,522.085787 L 446.738988,521.952245 L 446.427877,521.840714 L 446.088884,521.752664 L 445.717606,521.682224 L 445.311107,521.630861 L 444.862051,521.595641 L 444.255973,521.544279 L 444.010900,521.511994 L 443.799579,521.473839 L 443.617609,521.429813 L 443.460586,521.378451 L 443.327043,521.318283 L 443.211111,521.249311 L 443.108385,521.170065 L 442.732705,520.922057 L 442.496437,520.820800 L 442.238156,520.735685 L 441.966668,520.668179 L 441.687842,520.622687 L 441.411952,520.599207 L 441.144866,520.599207 L 440.895391,520.625622 L 440.648850,520.649102 L 440.534385,520.644699 L 440.424322,520.628557 L 440.314260,520.600674 L 440.205664,520.559584 L 440.094134,520.505287 L 439.978202,520.436314 L 439.856399,520.352666 L 439.336903,520.084113 L 439.021390,519.987258 L 438.679461,519.918285 L 438.318456,519.875728 L 437.944242,519.861053 L 437.565627,519.875728 L 437.191413,519.919753 L 436.826005,519.994596 L 436.423909,520.087048 L 436.255147,520.106126 L 436.096656,520.107593 L 435.939633,520.089983 L 435.772338,520.054763 L 435.587433,519.998998 L 435.373177,519.922688 L 435.122234,519.824365 L 434.219720,519.450152 L 433.146975,519.841975 L 432.630414,520.021011 L 432.391211,520.087048 L 432.156411,520.136943 L 431.920143,520.173631 L 431.673602,520.198579 L 431.410919,520.213254 L 431.127691,520.219124 L 430.815113,520.216189 L 430.207567,520.208851 L 429.962494,520.219124 L 429.743836,520.242604 L 429.544256,520.279291 L 429.352013,520.332121 L 429.159770,520.404029 L 428.958722,520.495014 L 428.737129,520.608012 L 428.337968,520.792917 L 428.145725,520.861890 L 427.954950,520.919122 L 427.761240,520.963148 L 427.558724,520.995433 L 427.344469,521.017445 L 427.114071,521.029185 L 426.864595,521.033588 L 426.113234,521.080548 L 425.784513,521.142183 L 425.480740,521.233168 L 425.191642,521.357906 L 424.912816,521.514929 L 424.638393,521.711574 L 424.359568,521.947842 L 424.071937,522.225200 L 423.741749,522.545116 L 423.600869,522.659581 L 423.467326,522.747631 L 423.335251,522.813669 L 423.198773,522.859161 L 423.049088,522.887044 L 422.883260,522.903186 L 422.692484,522.906121 L 422.149508,522.983899 L 421.870683,523.086624 L 421.583052,523.234842 L 421.279279,523.434423 L 420.954961,523.686833 L 420.605695,523.995009 L 420.228547,524.364819 L 419.814711,524.796265 L 418.900457,525.870477 L 418.485153,526.433999 L 418.097733,527.018065 L 417.733792,527.627078 L 417.393331,528.262507 L 417.074883,528.928754 L 416.775513,529.628752 L 416.495219,530.365439 L 416.103396,531.436716 L 415.644068,530.262714 L 414.829604,528.441543 L 414.371743,527.587456 L 413.885999,526.778862 L 413.373841,526.021630 L 412.839670,525.320164 L 412.289356,524.683268 L 411.724367,524.115344 L 411.149106,523.622263 L 410.700050,523.292075 L 410.512210,523.171739 L 410.339045,523.077819 L 410.176152,523.008847 L 410.014726,522.960419 L 409.848899,522.928134 L 409.672798,522.911991 L 409.480555,522.906121 L 409.107810,522.889979 L 408.955189,522.862096 L 408.814309,522.819539 L 408.680766,522.754969 L 408.547224,522.666918 L 408.403408,522.552453 L 408.246385,522.405703 L 408.065883,522.225200 L 407.500894,521.711574 L 407.226471,521.514929 L 406.949113,521.357906 L 406.661482,521.233168 L 406.359177,521.142183 L 406.033391,521.080548 L 405.679723,521.045328 L 405.290835,521.033588 L 404.806559,521.017445 L 404.593771,520.995433 L 404.395658,520.961680 L 404.204882,520.916187 L 404.018509,520.857487 L 403.830669,520.784112 L 403.638426,520.696062 L 403.435911,520.590402 L 403.016205,520.380549 L 402.834235,520.310109 L 402.656667,520.260214 L 402.474696,520.227929 L 402.278051,520.213254 L 402.054991,520.214721 L 401.796710,520.226461 L 401.494404,520.249941 L 400.960233,520.286629 L 400.735705,520.288096 L 400.531722,520.277824 L 400.343882,520.254344 L 400.163379,520.219124 L 399.987279,520.169228 L 399.808244,520.107593 L 399.620403,520.029816 L 398.938014,519.764198 L 398.644514,519.680550 L 398.375961,519.626252 L 398.125018,519.601305 L 397.884347,519.607175 L 397.649547,519.640927 L 397.413279,519.702563 L 397.169673,519.790613 z"
       style="fill:none;stroke:#000000"
       id="path945" />
    <path
       d="M 399.467783,522.787254 L 399.723128,522.947212 L 399.875749,523.048469 L 400.037174,523.159999 L 400.205937,523.280335 L 400.377635,523.406540 L 400.546397,523.535680 L 400.710758,523.664820 L 400.863378,523.792493 L 401.152476,524.018489 L 401.288954,524.118279 L 401.415159,524.209264 L 401.531092,524.287042 L 401.630882,524.351612 L 401.714530,524.398572 L 401.777632,524.429389 L 401.817255,524.439662 L 402.000693,524.329599 L 402.081406,524.206329 L 402.148911,524.052241 L 402.201741,523.877608 L 402.235493,523.689768 L 402.247233,523.501928 L 402.234026,523.322892 L 402.191468,523.162934 L 402.143041,523.011782 L 402.125431,522.945744 L 402.112223,522.887044 L 402.103418,522.835681 L 402.100483,522.794591 L 402.101951,522.762306 L 402.110756,522.743229 L 402.123963,522.735891 L 402.429204,522.879706 L 402.668407,523.039664 L 402.944297,523.243647 L 403.243668,523.478448 L 403.548909,523.732326 L 403.846812,523.995009 L 404.119767,524.250354 L 404.354568,524.491025 L 404.711171,524.863770 L 404.840311,524.985573 L 404.947439,525.067753 L 405.035489,525.113246 L 405.111799,525.124986 L 405.180772,525.105908 L 405.249744,525.057481 L 405.324587,524.984106 L 405.415572,524.840290 L 405.458130,524.750773 L 405.497752,524.650982 L 405.534440,524.545322 L 405.566725,524.433792 L 405.594608,524.320794 L 405.616620,524.209264 L 405.631295,524.099201 L 405.682658,523.503395 L 406.448694,524.269432 L 406.770077,524.595217 L 406.950580,524.781590 L 407.138421,524.978236 L 407.330664,525.182219 L 407.519971,525.384734 L 407.703409,525.584314 L 407.875107,525.776557 L 408.032130,525.954125 L 408.849529,526.874249 L 409.122485,526.159575 L 409.395440,525.443434 L 409.973636,526.005488 L 410.959798,527.161880 L 411.458749,527.873619 L 411.943025,528.645525 L 412.400886,529.455587 L 412.819125,530.278856 L 413.184533,531.094788 L 413.482436,531.879902 L 413.702561,532.612186 L 413.924154,534.468577 L 413.850779,535.350546 L 413.658536,536.188491 L 413.351828,536.972137 L 412.935057,537.688279 L 412.412626,538.329577 L 411.787470,538.882826 L 411.063991,539.337752 L 410.779296,539.463957 L 410.660428,539.485970 L 410.540093,539.474230 L 410.406550,539.425802 L 410.246592,539.331882 L 410.047012,539.189534 L 409.796069,538.995824 L 409.480555,538.741946 L 406.777415,536.774024 L 405.204252,535.767317 L 403.518091,534.765013 L 401.746815,533.781786 L 399.918306,532.833779 L 398.058980,531.935667 L 396.196719,531.102125 L 394.359405,530.347829 L 392.796514,529.752023 L 392.350394,529.600870 L 392.127333,529.550975 L 392.127333,529.605272 L 392.350394,529.766698 L 392.796514,530.038186 L 393.467163,530.424139 L 394.359405,530.926025 L 398.290845,533.199187 L 400.001954,534.254322 L 401.566312,535.268366 L 403.000062,536.254528 L 404.319348,537.226015 L 405.541778,538.191632 L 406.683495,539.164587 L 407.760642,540.155151 L 408.473848,540.878630 L 408.689571,541.155988 L 408.815777,541.409866 L 408.855399,541.662277 L 408.811374,541.941102 L 408.689571,542.268355 L 408.491458,542.670451 L 408.219970,543.169402 L 406.947645,544.813005 L 406.100896,545.510069 L 405.123539,546.117615 L 404.022912,546.634176 L 402.806352,547.055350 L 401.481197,547.378200 L 400.053317,547.599793 L 398.531516,547.715726 L 396.318522,547.800841 L 396.914328,547.290150 L 397.138856,547.078830 L 397.223971,546.984910 L 397.291476,546.899795 L 397.339904,546.822017 L 397.369254,546.754512 L 397.379526,546.697279 L 397.369254,546.647384 L 397.339904,546.609229 L 397.169673,546.543191 L 397.008248,546.505036 L 396.804265,546.465414 L 396.563595,546.424324 L 396.290639,546.383233 L 395.994203,546.342143 L 395.677223,546.303988 L 395.347035,546.268768 L 394.671983,546.177783 L 394.340328,546.126420 L 394.021879,546.072123 L 393.723976,546.016358 L 393.453956,545.962060 L 393.217688,545.907763 L 393.023977,545.856400 L 392.878695,545.807972 L 392.247668,545.536484 L 392.827332,545.245919 L 393.023977,545.138791 L 393.113495,545.083026 L 393.194208,545.027261 L 393.266115,544.972963 L 393.324816,544.923068 L 393.368841,544.876108 L 393.396723,544.836485 L 393.405528,544.804200 L 393.313076,544.723488 L 393.195675,544.661853 L 393.037185,544.587010 L 392.843475,544.503362 L 392.617479,544.412377 L 392.366536,544.316989 L 392.093581,544.220134 L 391.805950,544.123279 L 390.341382,543.587640 L 389.802808,543.357242 L 389.399245,543.154727 L 389.133627,542.983029 L 389.011824,542.845084 L 389.036772,542.743826 L 389.211405,542.680724 L 389.541593,542.658711 L 389.936351,542.626426 L 390.121257,542.591206 L 390.290019,542.545713 L 390.432367,542.492883 L 390.543897,542.437118 L 390.615805,542.378418 L 390.640753,542.321185 L 390.614338,542.266888 L 390.496937,542.199383 L 390.382472,542.136280 L 390.235722,542.055567 L 390.061089,541.960180 L 389.862976,541.853052 L 389.645786,541.735652 L 389.410985,541.612381 L 389.165912,541.483241 L 388.250190,540.963745 L 387.821679,540.699595 L 387.425454,540.444249 L 387.076188,540.203579 L 386.782687,539.984921 L 386.556692,539.797080 L 386.411409,539.647395 L 386.357112,539.541735 L 386.404072,539.499177 L 386.459837,539.481567 L 386.534679,539.463957 L 386.625665,539.450750 L 386.729857,539.439010 L 386.847258,539.430205 L 386.973463,539.424335 L 387.105538,539.422867 L 387.379961,539.414062 L 387.504699,539.402322 L 387.619164,539.387647 L 387.721889,539.368569 L 387.808472,539.348024 L 387.878912,539.323077 L 387.928807,539.298129 L 387.958157,539.270247 L 387.950820,539.189534 L 387.918535,539.135236 L 387.868640,539.073601 L 387.804069,539.006096 L 387.723357,538.932721 L 387.630904,538.857878 L 387.526711,538.783036 L 387.412246,538.708193 L 386.707845,538.188697 L 386.304281,537.867314 L 385.897783,537.529788 L 385.513297,537.199600 L 385.172837,536.892892 L 384.899881,536.631676 L 384.719378,536.435031 L 384.654808,536.324968 L 384.701768,536.279476 L 384.757533,536.258931 L 384.830909,536.239853 L 384.920426,536.222243 L 385.023151,536.207568 L 385.136149,536.197296 L 385.257952,536.189958 L 385.385625,536.188491 L 385.651243,536.181153 L 385.773045,536.172348 L 385.886043,536.162076 L 385.985833,536.148868 L 386.072416,536.135660 L 386.141389,536.119518 L 386.192751,536.103375 L 386.220634,536.085765 L 386.185414,535.980105 L 386.112039,535.880315 L 386.006378,535.752642 L 385.871368,535.600022 L 385.711410,535.428324 L 385.529440,535.240484 L 385.328392,535.037968 L 385.114137,534.825180 L 384.665081,534.395202 L 384.452293,534.178012 L 384.252712,533.968159 L 384.069274,533.767111 L 383.907849,533.583673 L 383.772839,533.419313 L 383.668646,533.281367 L 383.598206,533.174240 L 383.309108,532.663549 L 384.211622,532.748664 L 384.566758,532.767741 L 384.719378,532.766274 L 384.854389,532.758936 L 384.971789,532.744261 L 385.071579,532.725184 L 385.150824,532.698769 L 385.210992,532.666484 L 385.250614,532.629796 L 385.227134,532.491851 L 385.165499,532.383255 L 385.071579,532.249713 L 384.948309,532.092690 L 384.795688,531.916590 L 384.615186,531.721412 L 384.409735,531.510091 L 384.177870,531.284096 L 383.756696,530.862922 L 383.558583,530.656004 L 383.375146,530.459359 L 383.209318,530.274454 L 383.065502,530.107158 L 382.945167,529.961876 L 382.855650,529.841540 L 382.798417,529.752023 L 382.708899,529.553910 L 382.701562,529.487872 L 382.725042,529.440912 L 382.788144,529.410094 L 382.895272,529.391017 L 383.053762,529.380744 L 383.269485,529.377809 L 383.546843,529.377809 L 383.988562,529.367537 L 384.145585,529.354329 L 384.267387,529.332317 L 384.356905,529.300032 L 384.418540,529.258942 L 384.458163,529.204644 L 384.478708,529.137139 L 384.484578,529.053491 L 384.418540,528.670473 L 384.340763,528.426868 L 384.233635,528.155379 L 384.101560,527.860411 L 383.946004,527.546366 L 383.769904,527.217645 L 383.573258,526.878652 L 383.360471,526.533789 L 382.780807,525.631274 L 387.412246,525.631274 L 386.885413,524.966496 L 386.609522,524.614295 L 386.527342,524.495427 L 386.481849,524.407377 L 386.470109,524.344274 L 386.492122,524.297314 L 386.546419,524.262094 L 386.633002,524.232744 L 386.748935,524.200459 L 387.330066,524.103604 L 387.664657,524.096266 L 388.049142,524.116811 L 388.498198,524.169641 L 389.027967,524.254757 L 389.654591,524.375092 L 390.394212,524.533582 L 391.260039,524.728760 L 391.531527,524.714085 L 391.606370,524.642177 L 391.641590,524.533582 L 391.635720,524.392702 L 391.590227,524.225407 L 391.503644,524.034631 L 391.377439,523.826246 L 391.210144,523.604653 L 390.766958,523.093962 L 391.414127,523.196687 L 391.728172,523.253920 L 391.933623,523.297945 L 392.162553,523.352242 L 392.410561,523.412410 L 392.671777,523.479915 L 392.938862,523.551823 L 393.208883,523.628133 L 393.474501,523.707378 L 394.498818,523.955386 L 394.839279,523.997944 L 395.069677,523.984736 L 395.192947,523.912828 L 395.213492,523.779286 L 395.132779,523.582640 L 394.955211,523.321425 L 394.683723,522.991237 L 394.491480,522.759371 L 394.422508,522.663983 L 394.371145,522.581803 L 394.338860,522.515766 L 394.325653,522.462936 L 394.328588,522.426248 L 394.352068,522.404235 L 394.393158,522.395430 L 394.895044,522.489351 L 395.256049,522.593543 L 395.662548,522.725619 L 396.089591,522.878239 L 396.516634,523.044067 L 396.918730,523.214297 L 397.273866,523.381592 L 397.561497,523.537148 L 397.834452,523.672158 L 397.967995,523.730858 L 398.095668,523.779286 L 398.214535,523.818908 L 398.323131,523.848258 L 398.415583,523.865868 L 398.491893,523.870271 L 398.547658,523.859998 L 398.717889,523.716183 L 398.758979,523.607588 L 398.772186,523.479915 L 398.756044,523.334632 L 398.712019,523.176142 L 398.640111,523.007379 L 398.540321,522.831279 L 398.412648,522.650776 L 398.054578,522.191448 L 398.462543,522.310315 L 398.641579,522.374885 L 398.750174,522.418910 L 398.866107,522.470273 L 398.987909,522.527506 L 399.112647,522.587673 L 399.235917,522.652243 L 399.354785,522.719749 L 399.467783,522.787254 z"
       style="fill:none;stroke:#000000"
       id="path947" />
    <path
       d="M 433.964374,522.650776 L 433.811754,522.960419 L 433.757457,523.130649 L 433.720769,523.305282 L 433.698756,523.472578 L 433.695821,523.629600 L 433.709029,523.769013 L 433.742782,523.882011 L 433.794144,523.962724 L 433.880727,523.965659 L 433.959972,523.943646 L 434.058295,523.909893 L 434.174227,523.862933 L 434.304835,523.804233 L 434.450118,523.736728 L 434.604206,523.657483 L 434.765631,523.570900 L 435.483240,523.223102 L 435.905881,523.047002 L 436.346132,522.878239 L 436.781980,522.722684 L 437.194348,522.590608 L 437.562692,522.487883 L 437.866465,522.420378 L 438.085123,522.395430 L 438.171705,522.421845 L 438.184913,522.454131 L 438.177575,522.501091 L 438.149693,522.562726 L 438.099798,522.637568 L 438.026423,522.728554 L 437.932502,522.835681 L 437.813635,522.957484 L 437.459966,523.387462 L 437.349904,523.576770 L 437.285334,523.741131 L 437.266256,523.877608 L 437.294139,523.978866 L 437.368981,524.041969 L 437.490784,524.061046 L 437.659547,524.030229 L 438.383026,523.836518 L 438.827679,523.722053 L 439.763946,523.484318 L 440.210067,523.374255 L 440.610695,523.277400 L 440.943818,523.199622 L 441.184489,523.145324 L 441.764153,523.026457 L 441.218242,523.656015 L 440.764783,524.247419 L 440.679668,524.445532 L 440.695810,524.582010 L 440.814678,524.661255 L 441.042141,524.683268 L 441.381134,524.650982 L 441.836060,524.568802 L 442.409854,524.439662 L 443.306498,524.245952 L 443.693919,524.181382 L 444.050522,524.137356 L 444.383645,524.112409 L 444.697691,524.108006 L 444.999997,524.121214 L 445.296432,524.152031 L 445.594335,524.200459 L 446.138779,524.320794 L 445.509220,524.966496 L 444.862051,525.631274 L 447.195381,525.631274 L 448.003975,525.635677 L 448.367916,525.641547 L 448.693701,525.648884 L 448.975462,525.656222 L 449.207328,525.666494 L 449.380493,525.676767 L 449.490556,525.688507 L 449.527243,525.698780 L 449.494958,525.780960 L 449.455336,525.852867 L 449.402505,525.942385 L 449.339403,526.046578 L 449.266028,526.163978 L 449.183847,526.291651 L 449.094330,526.428129 L 449.000410,526.567541 L 448.652611,527.160412 L 448.476511,527.502341 L 448.306281,527.853074 L 448.152193,528.199405 L 448.020118,528.522255 L 447.915925,528.808418 L 447.849887,529.041751 L 447.824940,529.207579 L 447.885107,529.269214 L 447.954080,529.297097 L 448.048000,529.320577 L 448.160998,529.339654 L 448.291606,529.355797 L 448.436888,529.367537 L 448.595379,529.374874 L 448.761207,529.377809 L 449.106070,529.386614 L 449.254288,529.399822 L 449.383428,529.415964 L 449.492023,529.437977 L 449.580073,529.462925 L 449.644643,529.492275 L 449.684266,529.526027 L 449.697473,529.564182 L 449.612358,529.715335 L 449.511101,529.844475 L 449.376090,530.005901 L 449.211730,530.193741 L 449.022422,530.402126 L 448.809634,530.628122 L 448.580704,530.867325 L 448.335631,531.113865 L 447.868965,531.599609 L 447.664982,531.825604 L 447.485947,532.033990 L 447.333326,532.218895 L 447.212991,532.377385 L 447.127876,532.505058 L 447.080916,532.596043 L 447.076513,532.645938 L 447.174836,532.704639 L 447.261419,532.725184 L 447.367079,532.742794 L 447.490349,532.753066 L 447.628294,532.760404 L 447.777980,532.761871 L 447.935002,532.757469 L 448.097895,532.748664 L 448.419278,532.726651 L 448.563094,532.725184 L 448.690766,532.728119 L 448.802297,532.736924 L 448.891814,532.750131 L 448.959320,532.767741 L 449.001877,532.789754 L 449.016552,532.816169 L 448.927034,532.962919 L 448.819907,533.097929 L 448.677559,533.265225 L 448.502926,533.464805 L 448.300411,533.687866 L 448.075883,533.932939 L 447.830810,534.194154 L 447.569594,534.468577 L 447.064773,534.993943 L 446.838778,535.236081 L 446.636262,535.456207 L 446.463097,535.652852 L 446.319282,535.817212 L 446.213622,535.947820 L 446.146116,536.038805 L 446.122636,536.085765 L 446.176934,536.119518 L 446.242972,536.135660 L 446.329554,536.148868 L 446.435214,536.162076 L 446.558485,536.172348 L 446.696430,536.181153 L 446.847583,536.185556 L 447.007541,536.188491 L 447.893912,536.188491 L 447.381754,536.715324 L 447.127876,536.960397 L 446.951775,537.115952 L 446.753663,537.287650 L 446.535005,537.471088 L 446.303139,537.660396 L 446.062469,537.854106 L 445.818863,538.044882 L 445.578193,538.231255 L 445.130604,538.581988 L 444.935426,538.744881 L 444.762261,538.893098 L 444.616978,539.025174 L 444.501046,539.136704 L 444.418865,539.226222 L 444.373373,539.287857 L 444.368970,539.321609 L 444.464358,539.353894 L 444.545071,539.370037 L 444.644861,539.384712 L 444.760794,539.397919 L 444.891401,539.408192 L 445.032282,539.415530 L 445.181967,539.421400 L 445.338990,539.422867 L 446.207752,539.440477 L 445.542973,540.002531 L 445.221590,540.250539 L 445.013204,540.394354 L 444.784274,540.546974 L 444.537733,540.705465 L 444.279453,540.863955 L 444.016770,541.020978 L 443.755554,541.170663 L 443.500209,541.313011 L 442.558072,541.814897 L 442.241091,541.992465 L 442.015096,542.131877 L 441.871280,542.240473 L 441.796438,542.324120 L 441.783230,542.391625 L 441.819918,542.450326 L 441.899163,542.504623 L 442.016563,542.558921 L 442.098743,542.582401 L 442.192663,542.604413 L 442.298324,542.622023 L 442.409854,542.638166 L 442.528722,542.648439 L 442.647589,542.655776 L 442.767925,542.658711 L 443.002725,542.667516 L 443.098113,542.679256 L 443.178825,542.695399 L 443.243396,542.715944 L 443.288888,542.739424 L 443.316771,542.765839 L 443.325576,542.795189 L 443.312368,542.828941 L 443.026205,543.069612 L 442.764990,543.219297 L 442.440671,543.383657 L 442.060588,543.556823 L 441.635012,543.737326 L 441.174216,543.920764 L 440.685538,544.101266 L 440.179249,544.275899 L 438.732292,544.752838 L 439.124115,545.059546 L 439.276735,545.175479 L 439.355980,545.226841 L 439.433758,545.270866 L 439.508601,545.309021 L 439.579041,545.339839 L 439.645078,545.363319 L 439.703778,545.377994 L 439.753674,545.382396 L 439.838789,545.392669 L 439.876944,545.402942 L 439.909229,545.419084 L 439.938579,545.436694 L 439.960591,545.458707 L 439.978202,545.482187 L 439.988474,545.508602 L 439.992877,545.536484 L 439.749271,545.708182 L 439.471913,545.806505 L 439.113842,545.909230 L 438.695604,546.009020 L 438.231873,546.104408 L 437.743195,546.190991 L 437.245711,546.264366 L 436.757033,546.318663 L 435.845713,546.403779 L 435.527265,546.444869 L 435.290997,546.488894 L 435.125169,546.538789 L 435.023912,546.596021 L 434.978419,546.664994 L 434.979887,546.748642 L 435.020977,546.846964 L 435.104624,546.962897 L 435.166259,547.027467 L 435.235232,547.096440 L 435.314477,547.168348 L 435.398125,547.238788 L 435.486175,547.309228 L 435.577160,547.378200 L 435.668145,547.442771 L 436.161226,547.800841 L 433.863117,547.715726 L 431.488697,547.494133 L 430.410082,547.293085 L 429.403375,547.030402 L 428.468576,546.707552 L 427.604217,546.321598 L 426.810298,545.874010 L 426.088286,545.361851 L 425.433780,544.786590 L 424.823299,544.089526 L 424.525396,543.678626 L 424.246570,543.248647 L 423.995627,542.818669 L 423.782839,542.404833 L 423.619946,542.023282 L 423.514286,541.693094 L 423.476131,541.431879 L 423.779904,540.982823 L 424.127702,540.610077 L 424.579693,540.165424 L 425.115332,539.666473 L 425.714073,539.133769 L 426.353904,538.584923 L 427.017216,538.039012 L 427.681994,537.516581 L 429.762914,535.997715 L 430.929578,535.203796 L 432.157878,534.399604 L 433.436073,533.593945 L 434.748021,532.797091 L 436.077579,532.017847 L 437.410071,531.266486 L 438.732292,530.551812 L 439.407343,530.183469 L 439.706713,530.014706 L 439.973799,529.863553 L 440.201262,529.730010 L 440.386167,529.618480 L 440.521178,529.531897 L 440.601890,529.473197 L 440.622435,529.445315 L 440.141094,529.570052 L 439.634806,529.746153 L 439.003780,529.976551 L 438.289106,530.246571 L 437.530407,530.541539 L 436.768773,530.845312 L 436.043826,531.143215 L 435.395190,531.420574 L 432.609869,532.723716 L 431.196664,533.454533 L 429.790796,534.223504 L 428.411343,535.021826 L 427.072981,535.839225 L 425.793318,536.668364 L 424.588498,537.497503 L 423.476131,538.316370 L 421.740075,539.626850 L 420.837561,538.997291 L 419.952656,538.294357 L 419.594586,537.918677 L 419.286410,537.523918 L 419.028130,537.105680 L 418.816809,536.659559 L 418.649514,536.181153 L 418.523309,535.667527 L 418.436726,535.115746 L 418.507166,533.413443 L 418.721421,532.459566 L 419.045740,531.460196 L 419.472783,530.430009 L 419.995214,529.388082 L 420.605695,528.349090 L 421.296889,527.329175 L 422.062926,526.345948 L 422.507579,525.849932 L 422.682212,525.679702 L 422.826027,525.559367 L 422.940492,525.490394 L 423.028543,525.469849 L 423.088710,525.497732 L 423.123930,525.575509 L 423.135670,525.698780 L 423.147410,525.814712 L 423.160618,525.888087 L 423.178228,525.968800 L 423.200240,526.055383 L 423.223720,526.146368 L 423.250135,526.237353 L 423.278018,526.326871 L 423.305901,526.414921 L 423.414496,526.629176 L 423.489338,526.661461 L 423.596466,526.627709 L 423.753489,526.517646 L 423.975082,526.321001 L 424.275920,526.027500 L 424.672146,525.625404 L 425.178434,525.102973 L 426.864595,523.333165 L 426.882205,524.099201 L 426.923295,524.758110 L 426.984930,524.953288 L 427.078851,525.060416 L 427.210926,525.078026 L 427.385559,525.009053 L 427.610087,524.853498 L 427.888912,524.612827 L 428.226438,524.285574 L 428.602119,523.933374 L 428.792894,523.763143 L 428.980734,523.598783 L 429.161237,523.447630 L 429.328533,523.311152 L 429.482620,523.192285 L 429.616163,523.096897 L 429.724758,523.026457 L 430.253060,522.735891 L 430.167944,523.383060 L 430.140062,523.660418 L 430.141529,523.779286 L 430.150334,523.884946 L 430.170879,523.977399 L 430.200229,524.061046 L 430.241320,524.132954 L 430.292682,524.197524 L 430.355785,524.251822 L 430.505470,524.345742 L 430.583248,524.357482 L 430.669830,524.344274 L 430.768153,524.304652 L 430.887021,524.237147 L 431.030836,524.138824 L 431.202534,524.008216 L 431.410919,523.843856 L 432.025803,523.387462 L 432.385341,523.148259 L 432.752217,522.914926 L 433.111755,522.699204 L 433.444878,522.512831 L 433.733977,522.364613 L 433.958504,522.264823 L 434.100852,522.225200 L 434.128735,522.251615 L 434.130202,522.282433 L 434.122865,522.324990 L 434.106722,522.376353 L 434.083242,522.435053 L 434.052425,522.501091 L 434.012802,522.574466 L 433.964374,522.650776 z"
       style="fill:none;stroke:#000000"
       id="path949" />
    <path
       d="M 418.385363,548.345285 L 421.151606,549.250734 L 422.413659,549.890566 L 423.558311,550.624317 L 424.557681,551.428509 L 425.383885,552.282595 L 426.007574,553.164565 L 426.403799,554.049469 L 426.541745,554.918231 L 425.856421,556.890555 L 425.052229,557.744641 L 423.979484,558.491600 L 422.664602,559.118224 L 421.138399,559.611305 L 419.430225,559.956168 L 417.565029,560.138139 L 415.575095,560.145476 L 413.276986,559.923883 L 412.214513,559.724303 L 411.215144,559.467490 L 410.281812,559.153444 L 409.417453,558.785101 L 408.627936,558.360992 L 407.914730,557.882587 L 407.283704,557.352818 L 406.197751,556.070220 L 405.888108,555.439194 L 405.735488,554.811103 L 405.738423,554.181544 L 405.896913,553.544648 L 406.213894,552.898947 L 406.686430,552.240038 L 407.317456,551.563519 L 409.435063,549.952201 L 410.617870,549.325577 L 411.860845,548.823691 L 413.147845,548.449478 L 414.459793,548.211742 L 415.782013,548.110484 L 417.095428,548.154510 L 418.385363,548.345285 z"
       style="fill:none;stroke:#000000"
       id="path951" />
    <path
       d="M 402.958972,550.302934 L 403.162955,550.361634 L 403.248070,550.399789 L 403.321446,550.445282 L 403.384548,550.496644 L 403.435911,550.553877 L 403.475533,550.616979 L 403.503416,550.687420 L 403.521026,550.763730 L 402.467359,552.686159 L 401.200904,554.140454 L 399.582248,555.788460 L 397.717052,557.531853 L 395.713910,559.272312 L 393.678484,560.907110 L 391.714965,562.337925 L 389.931949,563.464968 L 389.221677,563.825973 L 388.881217,563.968321 L 388.561301,564.079851 L 388.267800,564.162032 L 388.009520,564.211927 L 387.792329,564.228069 L 387.625034,564.206057 L 387.514971,564.147357 L 387.384364,563.657211 L 387.356481,563.225765 L 387.353546,562.707736 L 387.371156,562.131008 L 387.410779,561.526396 L 387.472414,560.920318 L 387.551659,560.342121 L 387.651449,559.821158 L 388.724194,556.764349 L 389.504905,555.427454 L 390.441172,554.224102 L 391.525657,553.160162 L 392.755424,552.240038 L 394.123137,551.468131 L 395.624393,550.850312 L 397.254788,550.388049 L 398.270300,550.267714 L 398.974702,550.226624 L 399.748076,550.200209 L 400.540527,550.188469 L 401.305097,550.192871 L 401.994823,550.213416 L 402.562747,550.250104 L 402.958972,550.302934 z"
       style="fill:none;stroke:#000000"
       id="path953" />
    <path
       d="M 434.510286,550.831235 L 435.939633,551.274421 L 436.607347,551.548844 L 437.248646,551.862889 L 437.866465,552.216558 L 438.462271,552.611316 L 439.041935,553.050099 L 439.608391,553.534375 L 440.163107,554.067079 L 440.845496,554.765610 L 441.121386,555.073786 L 441.363524,555.368754 L 441.579247,555.659320 L 441.775893,555.952820 L 441.960798,556.262463 L 442.141301,556.595586 L 442.324739,556.960995 L 442.867715,558.170217 L 443.076100,558.726401 L 443.246331,559.273779 L 443.384276,559.828495 L 443.492871,560.405224 L 443.577986,561.023043 L 443.641089,561.696627 L 443.688049,562.443586 L 443.789307,564.452597 L 443.211111,564.452597 L 441.552832,563.927231 L 440.425790,563.302075 L 439.140257,562.465598 L 437.725585,561.436879 L 436.211121,560.240864 L 434.624751,558.896631 L 432.998758,557.427661 L 431.359557,555.854497 L 429.781991,554.243179 L 429.164172,553.573998 L 428.654949,552.985529 L 428.249918,552.474838 L 427.941742,552.034587 L 427.727487,551.657439 L 427.602749,551.337523 L 427.563127,551.070438 L 427.585139,550.887000 L 427.615957,550.818027 L 427.665852,550.760795 L 427.737759,550.713835 L 427.833147,550.675680 L 427.954950,550.643395 L 428.109038,550.616979 L 428.295411,550.593499 L 428.569834,550.555344 L 428.712181,550.533332 L 428.853062,550.512787 L 428.991007,550.490774 L 429.121615,550.470229 L 429.240483,550.452619 L 429.346143,550.436477 L 429.435660,550.423269 L 430.263332,550.374841 L 430.834191,550.388049 L 431.469619,550.423269 L 432.135866,550.477567 L 432.805047,550.548007 L 433.443411,550.631655 L 434.023075,550.727042 L 434.510286,550.831235 z"
       style="fill:none;stroke:#000000"
       id="path955" />
    <path
       d="M 429.912599,560.962875 L 433.076535,562.186773 L 434.505883,563.102495 L 435.811961,564.197252 L 436.977158,565.453434 L 437.986800,566.853432 L 438.826212,568.381103 L 439.476316,570.015901 L 439.923904,571.740217 L 440.077992,575.360547 L 439.756609,577.036435 L 439.187217,578.590521 L 438.384493,579.996388 L 437.363111,581.230558 L 436.137746,582.266615 L 434.721606,583.079612 L 433.130833,583.643133 L 431.945090,583.830974 L 431.290584,583.861791 L 430.611130,583.851519 L 429.918469,583.803091 L 429.227275,583.713573 L 428.547821,583.585901 L 427.891847,583.420073 L 427.274029,583.217557 L 424.543006,581.824897 L 423.317641,580.904773 L 422.200871,579.854041 L 421.202969,578.685908 L 420.337142,577.413583 L 419.613663,576.048805 L 419.044272,574.607718 L 418.640709,573.103527 L 418.424986,569.446510 L 418.721421,567.742739 L 419.267333,566.156368 L 420.049512,564.718215 L 421.050349,563.451760 L 422.258104,562.386353 L 423.655166,561.546941 L 425.229797,560.962875 L 426.141116,560.804385 L 426.670885,560.758892 L 427.228536,560.735412 L 427.799395,560.735412 L 428.368786,560.758892 L 428.922034,560.804385 L 429.441530,560.871890 L 429.912599,560.962875 z"
       style="fill:none;stroke:#000000"
       id="path957" />
    <path
       d="M 407.675527,561.780274 L 409.103407,562.427443 L 409.749108,562.820734 L 410.347850,563.260985 L 410.902566,563.749663 L 411.413257,564.286769 L 411.879923,564.870836 L 412.302564,565.506264 L 412.681179,566.190121 L 413.127300,567.201230 L 413.303401,567.707519 L 413.450151,568.221145 L 413.569019,568.747978 L 413.658536,569.292422 L 413.721639,569.861813 L 413.758326,570.460554 L 413.770067,571.094516 L 413.577824,573.392625 L 413.338621,574.500590 L 413.004030,575.577737 L 412.576987,576.622599 L 412.057491,577.630774 L 411.447009,578.602261 L 410.747010,579.534125 L 409.956026,580.424899 L 408.215568,581.992192 L 407.302781,582.630556 L 406.363579,583.172065 L 405.400897,583.616718 L 404.414735,583.963049 L 403.408028,584.211057 L 402.382244,584.359275 L 401.340317,584.409170 L 399.618936,584.291769 L 398.838224,584.143552 L 398.100070,583.929296 L 397.400071,583.650471 L 396.732357,583.301205 L 396.089591,582.882967 L 395.464435,582.389886 L 394.853954,581.820495 L 393.298400,579.755718 L 392.746619,578.583183 L 392.348926,577.332871 L 392.106788,576.019455 L 392.021673,574.656145 L 392.097983,573.254680 L 392.337186,571.831202 L 392.742217,570.395984 L 394.124605,567.510873 L 395.052066,566.210666 L 396.111604,565.024923 L 397.287073,563.971256 L 398.560866,563.065807 L 399.913904,562.321783 L 401.328577,561.758262 L 402.788742,561.388451 L 403.820397,561.279856 L 404.391255,561.271051 L 404.979724,561.290128 L 405.571128,561.337088 L 406.150791,561.410464 L 406.704040,561.508786 L 407.217666,561.632057 L 407.675527,561.780274 z"
       style="fill:none;stroke:#000000"
       id="path959" />
    <path
       d="M 446.037521,567.977539 L 447.223264,568.858041 L 447.750097,569.317369 L 448.234373,569.792840 L 448.683429,570.288856 L 449.098732,570.811287 L 449.483218,571.360134 L 449.841289,571.941265 L 450.174412,572.557616 L 450.975669,574.601848 L 451.233949,575.673125 L 451.396842,576.769349 L 451.465815,577.881717 L 451.437932,579.007291 L 451.313194,580.137269 L 451.090134,581.264311 L 450.770218,582.382548 L 450.139192,583.857389 L 449.742966,584.574998 L 449.314455,585.247114 L 448.872737,585.850258 L 448.433953,586.360949 L 448.015715,586.755707 L 447.637099,587.009585 L 447.314249,587.099103 L 446.628925,586.805602 L 446.260582,586.457804 L 445.886368,585.991138 L 445.513623,585.420279 L 445.149682,584.755500 L 444.804819,584.011476 L 444.484903,583.199947 L 444.198740,582.331186 L 443.620544,580.179826 L 443.397483,579.127627 L 443.218448,578.079830 L 443.080503,577.024695 L 442.983648,575.954885 L 442.924947,574.860128 L 442.905870,573.730151 L 442.922012,572.557616 L 442.967505,571.220721 L 442.995388,570.720302 L 443.030608,570.307934 L 443.074633,569.966006 L 443.130398,569.673973 L 443.200838,569.412757 L 443.290356,569.166217 L 443.397483,568.913806 L 443.852409,568.105212 L 444.101885,567.832256 L 444.367503,567.645884 L 444.652198,567.544626 L 444.958907,567.528483 L 445.290562,567.595989 L 445.650100,567.745674 L 446.037521,567.977539 z"
       style="fill:none;stroke:#000000"
       id="path961" />
    <path
       d="M 387.242016,568.369363 L 387.764447,569.261604 L 387.964027,569.877956 L 388.121050,570.599967 L 388.234048,571.418834 L 388.303020,572.325750 L 388.326501,573.314847 L 388.301553,574.375852 L 388.229645,575.504362 L 387.680799,579.584020 L 387.278703,581.415464 L 386.807635,583.059067 L 386.282269,584.482545 L 385.714345,585.649210 L 385.117072,586.526776 L 384.503655,587.078558 L 383.887304,587.269333 L 383.006802,586.877510 L 382.523994,586.424051 L 382.035315,585.828245 L 381.556909,585.117974 L 381.103451,584.313782 L 380.691083,583.440618 L 380.337415,582.521961 L 380.057121,581.582759 L 379.817918,580.259071 L 379.750413,579.537060 L 379.716661,578.794503 L 379.716661,578.046077 L 379.750413,577.304988 L 379.817918,576.588847 L 379.920644,575.909393 L 380.057121,575.282769 L 380.735108,573.392625 L 381.203241,572.475436 L 381.743282,571.593467 L 382.343491,570.762860 L 382.996530,569.996823 L 383.690659,569.310032 L 384.417073,568.717161 L 385.165499,568.232885 L 385.774513,567.920307 L 386.021053,567.836659 L 386.241179,567.802906 L 386.443694,567.816114 L 386.635937,567.880684 L 386.826713,567.993682 L 387.026293,568.156575 L 387.242016,568.369363 z"
       style="fill:none;stroke:#000000"
       id="path963" />
    <path
       d="M 419.389135,582.774371 L 420.557268,583.161792 L 421.178021,583.428878 L 421.801710,583.732651 L 422.413659,584.065774 L 422.999192,584.419442 L 423.543636,584.784850 L 424.030847,585.153194 L 424.446150,585.515667 L 425.705268,586.902457 L 426.208621,587.615664 L 426.634197,588.349415 L 426.983463,589.109582 L 427.259354,589.903501 L 427.466271,590.737042 L 427.605684,591.617544 L 427.681994,592.547941 L 427.633567,594.549615 L 427.491219,595.450662 L 427.262289,596.301814 L 426.942373,597.113343 L 426.528537,597.898457 L 426.013444,598.668896 L 425.395625,599.434932 L 424.667743,600.209774 L 423.696256,601.122561 L 423.231058,601.498241 L 422.762925,601.832832 L 422.281584,602.130735 L 421.775295,602.400756 L 421.230851,602.651699 L 420.637980,602.889434 L 419.984941,603.122767 L 419.346578,603.317945 L 419.044272,603.386918 L 418.728759,603.439748 L 418.379493,603.477903 L 417.974462,603.504318 L 417.497524,603.520460 L 416.925198,603.527798 L 416.239874,603.530733 L 414.919121,603.514590 L 414.436313,603.495513 L 414.034217,603.466163 L 413.687886,603.420670 L 413.366503,603.356100 L 413.045120,603.266582 L 412.694387,603.150650 L 412.289356,603.002432 L 411.134431,602.521091 L 410.610533,602.262810 L 410.115984,601.988387 L 409.646383,601.696354 L 409.195860,601.382309 L 408.760011,601.043316 L 408.334436,600.676440 L 407.913262,600.278747 L 406.736325,598.927176 L 406.271126,598.244787 L 405.883706,597.546256 L 405.568193,596.822777 L 405.321652,596.064078 L 405.139682,595.259886 L 405.016411,594.404332 L 404.950374,593.484208 L 405.020814,591.510416 L 405.170499,590.600565 L 405.399430,589.736205 L 405.710540,588.911469 L 406.105299,588.121952 L 406.585172,587.361786 L 407.153096,586.625099 L 407.810537,585.907490 L 409.972169,584.197849 L 411.187261,583.547745 L 412.471326,583.039989 L 413.808222,582.677516 L 415.184739,582.466196 L 416.583270,582.408963 L 417.990605,582.510221 L 419.389135,582.774371 z"
       style="fill:none;stroke:#000000"
       id="path965" />
    <path
       d="M 443.874422,586.962625 L 444.715301,587.829919 L 445.070437,588.438933 L 445.380080,589.155074 L 445.639828,589.966603 L 445.846746,590.867650 L 445.997899,591.847942 L 446.090351,592.900142 L 446.122636,594.012509 L 445.964146,596.439759 L 445.757228,597.531581 L 445.454922,598.566171 L 445.052827,599.556735 L 444.540668,600.522352 L 443.914044,601.477696 L 443.167085,602.441846 L 442.290986,603.428008 L 441.169814,604.518362 L 440.584280,605.002638 L 439.979669,605.450227 L 439.357448,605.858193 L 438.714681,606.229471 L 438.049903,606.564062 L 437.364579,606.861965 L 436.655775,607.123180 L 435.977789,607.341838 L 435.672548,607.421083 L 435.374645,607.484186 L 435.067937,607.529679 L 434.743619,607.563431 L 434.385548,607.585444 L 433.983452,607.597184 L 433.522656,607.600119 L 432.611337,607.600119 L 432.272344,607.585444 L 431.984713,607.559029 L 431.733770,607.513536 L 431.497502,607.450433 L 431.261234,607.362383 L 431.005889,607.249385 L 430.712388,607.107038 L 430.247190,606.848757 L 430.057882,606.725487 L 429.892054,606.602217 L 429.745304,606.473076 L 429.614696,606.335131 L 429.492893,606.183978 L 429.378428,606.016683 L 429.265430,605.828843 L 429.054110,605.407669 L 428.980734,605.203686 L 428.926437,604.979158 L 428.888282,604.717943 L 428.863334,604.400962 L 428.848659,604.009139 L 428.841322,603.526331 L 428.839854,602.934927 L 428.904424,601.389646 L 428.983669,600.695517 L 429.102537,600.024868 L 429.265430,599.358622 L 429.479685,598.674766 L 429.748239,597.952754 L 430.078427,597.172043 L 430.474652,596.310619 L 431.167314,594.957581 L 431.520982,594.351502 L 431.890793,593.777708 L 432.287019,593.220057 L 432.719932,592.668276 L 433.196870,592.109158 L 433.728106,591.528026 L 434.322445,590.913143 L 435.794351,589.520482 L 436.497285,588.923209 L 437.181141,588.393440 L 437.850322,587.923839 L 438.504829,587.517341 L 439.149062,587.168075 L 439.785959,586.876042 L 440.418452,586.639774 L 441.183021,586.484219 L 441.602727,586.459271 L 442.029771,586.466609 L 442.452411,586.506231 L 442.861845,586.576672 L 443.241928,586.676462 L 443.583856,586.807070 L 443.874422,586.962625 z"
       style="fill:none;stroke:#000000"
       id="path967" />
    <path
       d="M 392.043685,588.460945 L 394.506155,589.618805 L 395.696300,590.403919 L 396.838018,591.306434 L 397.916632,592.311673 L 398.914534,593.404963 L 399.817049,594.570160 L 400.608033,595.794058 L 401.272811,597.060513 L 401.831930,598.398875 L 402.049121,599.029901 L 402.228156,599.647720 L 402.369036,600.261136 L 402.477631,600.878955 L 402.552474,601.511449 L 402.599434,602.164488 L 402.618512,602.849812 L 402.586227,604.001801 L 402.540734,604.452325 L 402.467359,604.841213 L 402.363166,605.181674 L 402.223753,605.491317 L 402.044718,605.786285 L 401.820190,606.081253 L 401.545767,606.390896 L 400.706355,606.935340 L 400.141367,607.126115 L 399.501535,607.261125 L 398.803004,607.337436 L 398.061915,607.353578 L 397.292943,607.308086 L 396.513699,607.198023 L 395.738858,607.021923 L 392.431106,605.557355 L 390.960668,604.490480 L 389.638448,603.231362 L 388.482056,601.802015 L 387.507634,600.220046 L 386.734260,598.511873 L 386.181011,596.696572 L 385.862563,594.796156 L 385.805330,593.239135 L 385.847888,592.490708 L 385.937406,591.777502 L 386.070948,591.108321 L 386.247049,590.493437 L 386.461304,589.943123 L 386.715182,589.466185 L 387.004280,589.074362 L 387.771784,588.538723 L 388.281008,588.347948 L 388.850399,588.212937 L 389.465283,588.136627 L 390.109517,588.120485 L 390.764023,588.168912 L 391.414127,588.280442 L 392.043685,588.460945 z"
       style="fill:none;stroke:#000000"
       id="path969" />
    <path
       d="M 419.389135,607.192153 L 421.905903,607.616261 L 423.030010,607.899489 L 424.046990,608.222340 L 424.942166,608.581878 L 425.705268,608.969299 L 426.320152,609.381667 L 426.773610,609.813113 L 427.052436,610.256299 L 426.816168,611.899902 L 426.174869,612.847909 L 425.256212,613.820864 L 424.115962,614.773273 L 422.804015,615.662580 L 421.376134,616.441824 L 419.885151,617.066980 L 418.385363,617.492556 L 416.163564,617.744967 L 415.042392,617.714149 L 413.921219,617.577671 L 412.802982,617.339936 L 411.692082,616.999475 L 410.592923,616.559224 L 409.506970,616.019183 L 408.441563,615.382287 L 407.103201,614.409332 L 406.544082,613.923589 L 406.059806,613.445183 L 405.657710,612.975582 L 405.337795,612.519189 L 405.105929,612.081873 L 404.965049,611.666569 L 404.916621,611.277681 L 406.015781,609.645818 L 407.264626,608.916469 L 408.873009,608.276638 L 410.754348,607.746869 L 412.829397,607.350643 L 415.015976,607.111440 L 417.228971,607.049805 L 419.389135,607.192153 z"
       style="fill:none;stroke:#000000"
       id="path971" />
  </g>
  <g
     inkscape:groupmode="layer"
     inkscape:label="BOARD_OUTLINE"
     id="g991">
    <path
       d="M 75.590551,1084.724409 374.173228,1084.724409"
       style="fill:none;stroke:#5F984C"
       id="path975" />
    <path
       d="M 374.173228,1084.724409 A 11.338574,11.338574 -0.000000 0 0 385.511811,1073.385827"
       style="fill:none;stroke:#5F984C"
       id="path977" />
    <path
       d="M 385.511811,1073.385827 385.511811,884.409449"
       style="fill:none;stroke:#5F984C"
       id="path979" />
    <path
       d="M 385.511811,884.409449 A 11.338574,11.338574 -0.000000 0 0 374.173228,873.070866"
       style="fill:none;stroke:#5F984C"
       id="path981" />
    <path
       d="M 374.173228,873.070866 75.590551,873.070866"
       style="fill:none;stroke:#5F984C"
       id="path983" />
    <path
       d="M 75.590551,873.070866 A 11.338574,11.338574 -0.000000 0 0 64.251969,884.409449"
       style="fill:none;stroke:#5F984C"
       id="path985" />
    <path
       d="M 64.251969,884.409449 64.251969,1073.385827"
       style="fill:none;stroke:#5F984C"
       id="path987" />
    <path
       d="M 64.251969,1073.385827 A 11.338574,11.338574 -0.000000 0 0 75.590551,1084.724409"
       style="fill:none;stroke:#5F984C"
       id="path989" />
  </g>
  <g
     inkscape:groupmode="layer"
     inkscape:label="WALL"
     id="g1025">
    <path
       d="M -112.818898,1086.614173 390.425197,1086.614173"
       style="fill:none;stroke:#CC0000"
       id="path993" />
    <path
       d="M -112.818898,1092.283465 390.425197,1092.283465"
       style="fill:none;stroke:#CC0000"
       id="path995" />
    <path
       d="M 390.425197,1086.614173 A 7.559055,7.559055 -0.000000 0 0 397.984252,1079.055118"
       style="fill:none;stroke:#CC0000"
       id="path997" />
    <path
       d="M 403.653543,1079.055118 403.653543,769.133858"
       style="fill:none;stroke:#CC0000"
       id="path999" />
    <path
       d="M 390.425197,1092.283465 A 13.228346,13.228346 -0.000000 0 0 403.653543,1079.055118"
       style="fill:none;stroke:#CC0000"
       id="path1001" />
    <path
       d="M -126.047244,1079.055118 -126.047244,769.133858"
       style="fill:none;stroke:#CC0000"
       id="path1003" />
    <path
       d="M -112.818898,755.905512 390.425197,755.905512"
       style="fill:none;stroke:#CC0000"
       id="path1005" />
    <path
       d="M 403.653543,769.133858 A 13.228346,13.228346 -0.000000 0 0 390.425197,755.905512"
       style="fill:none;stroke:#CC0000"
       id="path1007" />
    <path
       d="M -126.047244,1079.055118 A 13.228346,13.228346 -0.000000 0 0 -112.818898,1092.283465"
       style="fill:none;stroke:#CC0000"
       id="path1009" />
    <path
       d="M -112.818898,755.905512 A 13.228346,13.228346 -0.000000 0 0 -126.047244,769.133858"
       style="fill:none;stroke:#CC0000"
       id="path1011" />
    <path
       d="M -112.818898,761.574803 390.425197,761.574803"
       style="fill:none;stroke:#CC0000"
       id="path1013" />
    <path
       d="M 397.984252,1079.055118 397.984252,769.133858"
       style="fill:none;stroke:#CC0000"
       id="path1015" />
    <path
       d="M -120.377953,1079.055118 -120.377953,769.133858"
       style="fill:none;stroke:#CC0000"
       id="path1017" />
    <path
       d="M 397.984252,769.133858 A 7.559055,7.559055 -0.000000 0 0 390.425197,761.574803"
       style="fill:none;stroke:#CC0000"
       id="path1019" />
    <path
       d="M -120.377953,1079.055118 A 7.559055,7.559055 -0.000000 0 0 -112.818898,1086.614173"
       style="fill:none;stroke:#CC0000"
       id="path1021" />
    <path
       d="M -112.818898,761.574803 A 7.559055,7.559055 -0.000000 0 0 -120.377953,769.133858"
       style="fill:none;stroke:#CC0000"
       id="path1023" />
  </g>
  <g
     inkscape:groupmode="layer"
     inkscape:label="PARTS_TOP"
     id="g1047">
    <path
       d="M 157.795276,1044.472441 L 157.795276,1090.393701 L 212.598425,1090.393701 L 212.598425,1044.472441 L 157.795276,1044.472441"
       style="fill:none;stroke:#FF7F00"
       id="path1027" />
    <path
       d="M 393.070866,1075.294488 L 393.070866,1016.674016 L 312.377953,1016.674016 L 312.377953,1075.294488 L 393.070866,1075.294488"
       style="fill:none;stroke:#FF7F00"
       id="path1029" />
    <path
       d="M 90.141732,1086.992126 L 118.488189,1086.992126 L 118.488189,1066.922835 L 90.141732,1066.922835 L 90.141732,1086.992126"
       style="fill:none;stroke:#FF7F00"
       id="path1031" />
    <path
       d="M 89.121260,1089.335433 L 119.508661,1089.335433 L 119.508661,1086.992126 L 89.121260,1086.992126 L 89.121260,1089.335433"
       style="fill:none;stroke:#FF7F00"
       id="path1033" />
    <path
       d="M 393.070866,931.918110 L 326.173228,931.918110 L 326.173228,882.255118 L 393.070866,882.255118 L 393.070866,934.866142 L 391.181102,934.866142 L 391.181102,931.918110"
       style="fill:none;stroke:#FF7F00"
       id="path1035" />
    <path
       d="M 393.070866,882.255118 L 393.070866,879.307087 L 391.181102,879.307087 L 391.181102,882.255118"
       style="fill:none;stroke:#FF7F00"
       id="path1037" />
    <path
       d="M 393.070866,999.949606 L 326.173228,999.949606 L 326.173228,950.286614 L 393.070866,950.286614 L 393.070866,1002.897638 L 391.181102,1002.897638 L 391.181102,999.949606"
       style="fill:none;stroke:#FF7F00"
       id="path1039" />
    <path
       d="M 393.070866,950.286614 L 393.070866,947.338583 L 391.181102,947.338583 L 391.181102,950.286614"
       style="fill:none;stroke:#FF7F00"
       id="path1041" />
    <path
       d="M 253.228346,1084.724409 L 279.685039,1084.724409 L 279.685039,1037.480315 L 253.228346,1037.480315 L 253.228346,1084.724409"
       style="fill:none;stroke:#FF7F00"
       id="path1043" />
    <path
       d="M 255.118110,1094.173228 L 277.795276,1094.173228 L 277.795276,1084.724409 L 255.118110,1084.724409 L 255.118110,1094.173228"
       style="fill:none;stroke:#FF7F00"
       id="path1045" />
  </g>
  <g
     inkscape:groupmode="layer"
     inkscape:label="PIN_POSTS"
     id="g1057">
    <path
       d="M 81.259843,1071.496063 A 3.779528,3.779528 -0.000000 1 0 73.700787,1071.496063 3.779528,3.779528 -0.000000 1 0 81.259843,1071.496063 z"
       style="fill:none;stroke:#FF0000"
       id="path1049" />
    <path
       d="M 300.472441,1071.496063 A 3.779528,3.779528 -0.000000 1 0 292.913386,1071.496063 3.779528,3.779528 -0.000000 1 0 300.472441,1071.496063 z"
       style="fill:none;stroke:#FF0000"
       id="path1051" />
    <path
       d="M 300.472441,886.299213 A 3.779528,3.779528 -0.000000 1 0 292.913386,886.299213 3.779528,3.779528 -0.000000 1 0 300.472441,886.299213 z"
       style="fill:none;stroke:#FF0000"
       id="path1053" />
    <path
       d="M 81.259843,886.299213 A 3.779528,3.779528 -0.000000 1 0 73.700787,886.299213 3.779528,3.779528 -0.000000 1 0 81.259843,886.299213 z"
       style="fill:none;stroke:#FF0000"
       id="path1055" />
  </g>
  <g
     inkscape:groupmode="layer"
     inkscape:label="PIN_STANDS"
     id="g1067">
    <path
       d="M 88.818898,886.299213 A 11.338583,11.338583 -0.000000 1 0 66.141732,886.299213 11.338583,11.338583 -0.000000 1 0 88.818898,886.299213 z"
       style="fill:none;stroke:#0000FF"
       id="path1059" />
    <path
       d="M 308.031496,886.299213 A 11.338583,11.338583 -0.000000 1 0 285.354331,886.299213 11.338583,11.338583 -0.000000 1 0 308.031496,886.299213 z"
       style="fill:none;stroke:#0000FF"
       id="path1061" />
    <path
       d="M 88.818898,1071.496063 A 11.338583,11.338583 -0.000000 1 0 66.141732,1071.496063 11.338583,11.338583 -0.000000 1 0 88.818898,1071.496063 z"
       style="fill:none;stroke:#0000FF"
       id="path1063" />
    <path
       d="M 308.031496,1071.496063 A 11.338583,11.338583 -0.000000 1 0 285.354331,1071.496063 11.338583,11.338583 -0.000000 1 0 308.031496,1071.496063 z"
       style="fill:none;stroke:#0000FF"
       id="path1065" />
  </g>
  <g
     inkscape:groupmode="layer"
     inkscape:label="FRONT"
     id="g1121">
    <path
       d="M 95.724237,1163.563812 112.905684,1163.563812"
       style="fill:none;stroke:#4C984C"
       id="path1071" />
    <path
       d="M 122.522007,1154.036352 122.522007,1149.708330"
       style="fill:none;stroke:#4C984C"
       id="path1073" />
    <path
       d="M 86.107915,1154.036352 86.107915,1149.708330"
       style="fill:none;stroke:#4C984C"
       id="path1075" />
    <path
       d="M 118.742479,1145.928802 89.887442,1145.928802"
       style="fill:none;stroke:#4C984C"
       id="path1077" />
    <path
       d="M 90.498437,1161.466472 88.441170,1159.498067"
       style="fill:none;stroke:#4C984C"
       id="path1079" />
    <path
       d="M 118.131484,1161.466472 120.188751,1159.498067"
       style="fill:none;stroke:#4C984C"
       id="path1081" />
    <path
       d="M 90.498437,1161.466472 A 7.559055,7.559055 -0.000000 0 0 95.724237,1163.563812"
       style="fill:none;stroke:#4C984C"
       id="path1083" />
    <path
       d="M 112.905684,1163.563812 A 7.559055,7.559055 -0.000000 0 0 118.131484,1161.466472"
       style="fill:none;stroke:#4C984C"
       id="path1085" />
    <path
       d="M 86.107915,1154.036352 A 7.559055,7.559055 -0.000000 0 0 88.441170,1159.498067"
       style="fill:none;stroke:#4C984C"
       id="path1087" />
    <path
       d="M 120.188751,1159.498067 A 7.559055,7.559055 -0.000000 0 0 122.522007,1154.036352"
       style="fill:none;stroke:#4C984C"
       id="path1089" />
    <path
       d="M 167.825416,1161.585820 202.568285,1161.585820"
       style="fill:none;stroke:#4C984C"
       id="path1091" />
    <path
       d="M 160.193301,1132.334099 210.200399,1132.334099"
       style="fill:none;stroke:#4C984C"
       id="path1093" />
    <path
       d="M 217.759454,1147.266468 217.759454,1139.893155"
       style="fill:none;stroke:#4C984C"
       id="path1095" />
    <path
       d="M 152.634246,1147.266468 152.634246,1139.893155"
       style="fill:none;stroke:#4C984C"
       id="path1097" />
    <path
       d="M 160.193301,1132.334099 A 7.559055,7.559055 -0.000000 0 0 152.634246,1139.893155"
       style="fill:none;stroke:#4C984C"
       id="path1099" />
    <path
       d="M 217.759454,1139.893155 A 7.559055,7.559055 -0.000000 0 0 210.200399,1132.334099"
       style="fill:none;stroke:#4C984C"
       id="path1101" />
    <path
       d="M 162.813319,1159.685228 155.181205,1152.924932"
       style="fill:none;stroke:#4C984C"
       id="path1103" />
    <path
       d="M 207.580381,1159.685228 215.212496,1152.924932"
       style="fill:none;stroke:#4C984C"
       id="path1105" />
    <path
       d="M 152.634246,1147.266468 A 7.559055,7.559055 -0.000000 0 0 155.181205,1152.924932"
       style="fill:none;stroke:#4C984C"
       id="path1107" />
    <path
       d="M 162.813319,1159.685228 A 7.559055,7.559055 -0.000000 0 0 167.825416,1161.585820"
       style="fill:none;stroke:#4C984C"
       id="path1109" />
    <path
       d="M 202.568285,1161.585820 A 7.559055,7.559055 -0.000000 0 0 207.580381,1159.685228"
       style="fill:none;stroke:#4C984C"
       id="path1111" />
    <path
       d="M 215.212496,1152.924932 A 7.559055,7.559055 -0.000000 0 0 217.759454,1147.266468"
       style="fill:none;stroke:#4C984C"
       id="path1113" />
    <path
       d="M 282.061943,1146.959960 A 15.605250,15.605250 -0.000000 1 0 250.851443,1146.959960 15.605250,15.605250 -0.000000 1 0 282.061943,1146.959960 z"
       style="fill:none;stroke:#4C984C"
       id="path1115" />
    <path
       d="M 122.522007,1149.708330 A 3.779528,3.779528 -0.000000 0 0 118.742479,1145.928802"
       style="fill:none;stroke:#4C984C"
       id="path1117" />
    <path
       d="M 89.887442,1145.928802 A 3.779528,3.779528 -0.000000 0 0 86.107915,1149.708330"
       style="fill:none;stroke:#4C984C"
       id="path1119" />
  </g>
  <g
     inkscape:groupmode="layer"
     inkscape:label="IMAGE"
     id="g1123"
     style="display:none" />
  <g
     inkscape:groupmode="layer"
     inkscape:label="SIDE"
     id="g1149">
    <path
       d="M 508.421669,1075.294488 508.421669,1016.674016"
       style="fill:none;stroke:#4C984C"
       id="path1125" />
    <path
       d="M 508.421669,1075.294488 453.543307,1075.294488"
       style="fill:none;stroke:#4C984C"
       id="path1127" />
    <path
       d="M 453.543307,1075.294488 453.543307,1016.674016"
       style="fill:none;stroke:#4C984C"
       id="path1129" />
    <path
       d="M 453.543307,1016.674016 508.421669,1016.674016"
       style="fill:none;stroke:#4C984C"
       id="path1131" />
    <path
       d="M 508.421669,1002.897638 445.444221,1002.897638"
       style="fill:none;stroke:#4C984C"
       id="path1133" />
    <path
       d="M 445.444221,1002.897638 445.444221,947.338583"
       style="fill:none;stroke:#4C984C"
       id="path1135" />
    <path
       d="M 445.444221,947.338583 508.421669,947.338583"
       style="fill:none;stroke:#4C984C"
       id="path1137" />
    <path
       d="M 445.444221,879.307087 508.421669,879.307087"
       style="fill:none;stroke:#4C984C"
       id="path1139" />
    <path
       d="M 445.444221,934.866142 445.444221,879.307087"
       style="fill:none;stroke:#4C984C"
       id="path1141" />
    <path
       d="M 508.421669,934.866142 445.444221,934.866142"
       style="fill:none;stroke:#4C984C"
       id="path1143" />
    <path
       d="M 508.421669,1002.897638 508.421669,947.338583"
       style="fill:none;stroke:#4C984C"
       id="path1145" />
    <path
       d="M 508.421669,934.866142 508.421669,879.307087"
       style="fill:none;stroke:#4C984C"
       id="path1147" />
  </g>
  <g
     inkscape:groupmode="layer"
     inkscape:label="WALL_TOP"
     id="g1183"
     style="display:none">
    <path
       d="m -112.8189,755.90551 a 13.228346,13.228346 0 0 0 -13.22834,13.22835"
       style="fill:none;stroke:#66ccb2"
       id="path1151" />
    <path
       d="m -126.04724,1079.0551 a 13.228346,13.228346 0 0 0 13.22834,13.2284"
       style="fill:none;stroke:#66ccb2"
       id="path1153" />
    <path
       d="M 403.65354,769.13386 A 13.228346,13.228346 0 0 0 390.4252,755.90551"
       style="fill:none;stroke:#66ccb2"
       id="path1155" />
    <path
       d="M -112.8189,755.90551 H 390.4252"
       style="fill:none;stroke:#66ccb2"
       id="path1157" />
    <path
       d="M -126.04724,1079.0551 V 769.13386"
       style="fill:none;stroke:#66ccb2"
       id="path1159" />
    <path
       d="m 390.4252,1092.2835 a 13.228346,13.228346 0 0 0 13.22834,-13.2284"
       style="fill:none;stroke:#66ccb2"
       id="path1161" />
    <path
       d="M 403.65354,1079.0551 V 769.13386"
       style="fill:none;stroke:#66ccb2"
       id="path1163" />
    <path
       d="M -112.8189,1092.2835 H 390.4252"
       style="fill:none;stroke:#66ccb2"
       id="path1165" />
    <path
       d="M -116.59843,1079.0551 V 769.13386"
       style="fill:none;stroke:#66ccb2"
       id="path1167" />
    <path
       d="m -112.8189,765.35433 a 3.779528,3.779528 0 0 0 -3.77953,3.77953"
       style="fill:none;stroke:#66ccb2"
       id="path1169" />
    <path
       d="M -112.8189,765.35433 H 390.4252"
       style="fill:none;stroke:#66ccb2"
       id="path1171" />
    <path
       d="m 394.20472,769.13386 a 3.779528,3.779528 0 0 0 -3.77952,-3.77953"
       style="fill:none;stroke:#66ccb2"
       id="path1173" />
    <path
       d="M 394.20472,1079.0551 V 769.13386"
       style="fill:none;stroke:#66ccb2"
       id="path1175" />
    <path
       d="m 390.4252,1082.8346 a 3.779528,3.779528 0 0 0 3.77952,-3.7795"
       style="fill:none;stroke:#66ccb2"
       id="path1177" />
    <path
       d="M -112.8189,1082.8346 H 390.4252"
       style="fill:none;stroke:#66ccb2"
       id="path1179" />
    <path
       d="m -116.59843,1079.0551 a 3.779528,3.779528 0 0 0 3.77953,3.7795"
       style="fill:none;stroke:#66ccb2"
       id="path1181" />
  </g>
  <g
     inkscape:groupmode="layer"
     inkscape:label="WALL_BEVEL"
     id="g1217"
     style="display:none">
    <path
       d="M -112.8189,1092.2835 H 390.4252"
       style="fill:none;stroke:#cc6699"
       id="path1185" />
    <path
       d="M 403.65354,1079.0551 V 769.13386"
       style="fill:none;stroke:#cc6699"
       id="path1187" />
    <path
       d="m 390.4252,1092.2835 a 13.228346,13.228346 0 0 0 13.22834,-13.2284"
       style="fill:none;stroke:#cc6699"
       id="path1189" />
    <path
       d="M -126.04724,1079.0551 V 769.13386"
       style="fill:none;stroke:#cc6699"
       id="path1191" />
    <path
       d="M -112.8189,755.90551 H 390.4252"
       style="fill:none;stroke:#cc6699"
       id="path1193" />
    <path
       d="M 403.65354,769.13386 A 13.228346,13.228346 0 0 0 390.4252,755.90551"
       style="fill:none;stroke:#cc6699"
       id="path1195" />
    <path
       d="m -126.04724,1079.0551 a 13.228346,13.228346 0 0 0 13.22834,13.2284"
       style="fill:none;stroke:#cc6699"
       id="path1197" />
    <path
       d="m -112.8189,755.90551 a 13.228346,13.228346 0 0 0 -13.22834,13.22835"
       style="fill:none;stroke:#cc6699"
       id="path1199" />
    <path
       d="M -112.8189,1085.6693 H 390.4252"
       style="fill:none;stroke:#cc6699"
       id="path1201" />
    <path
       d="m -119.43307,1079.0551 a 6.614173,6.614173 0 0 0 6.61417,6.6142"
       style="fill:none;stroke:#cc6699"
       id="path1203" />
    <path
       d="M -119.43307,1079.0551 V 769.13386"
       style="fill:none;stroke:#cc6699"
       id="path1205" />
    <path
       d="m -112.8189,762.51968 a 6.614173,6.614173 0 0 0 -6.61417,6.61418"
       style="fill:none;stroke:#cc6699"
       id="path1207" />
    <path
       d="M -112.8189,762.51968 H 390.4252"
       style="fill:none;stroke:#cc6699"
       id="path1209" />
    <path
       d="m 397.03937,769.13386 a 6.614173,6.614173 0 0 0 -6.61417,-6.61418"
       style="fill:none;stroke:#cc6699"
       id="path1211" />
    <path
       d="M 397.03937,1079.0551 V 769.13386"
       style="fill:none;stroke:#cc6699"
       id="path1213" />
    <path
       d="m 390.4252,1085.6693 a 6.614173,6.614173 0 0 0 6.61417,-6.6142"
       style="fill:none;stroke:#cc6699"
       id="path1215" />
  </g>
  <g
     inkscape:groupmode="layer"
     inkscape:label="HEAT"
     id="g1227">
    <path
       d="M -65.574803,1086.614173 -65.574803,761.574803"
       style="fill:none;stroke:#7F66CC"
       id="path1219" />
    <path
       d="M -58.015748,1086.614173 -58.015748,761.574803"
       style="fill:none;stroke:#7F66CC"
       id="path1221" />
    <path
       d="M -58.015748,1086.614173 -65.574803,1086.614173"
       style="fill:none;stroke:#7F66CC"
       id="path1223" />
    <path
       d="M -58.015748,761.574803 -65.574803,761.574803"
       style="fill:none;stroke:#7F66CC"
       id="path1225" />
  </g>
  <g
     inkscape:groupmode="layer"
     inkscape:label="HEAT_GROOVE"
     id="g1237"
     style="display:none">
    <path
       d="M -56.88189,1087.748 V 760.44095"
       style="fill:none;stroke:#7f00ff"
       id="path1229" />
    <path
       d="m -56.88189,1087.748 h -9.826771"
       style="fill:none;stroke:#7f00ff"
       id="path1231" />
    <path
       d="M -66.708661,1087.748 V 760.44095"
       style="fill:none;stroke:#7f00ff"
       id="path1233" />
    <path
       d="m -56.88189,760.44095 h -9.826771"
       style="fill:none;stroke:#7f00ff"
       id="path1235" />
  </g>
  <g
     inkscape:groupmode="layer"
     inkscape:label="BOTTOM_BEVEL"
     id="g1255"
     style="display:none">
    <path
       d="M -118.48819,1079.0551 V 769.13386"
       style="fill:none;stroke:#ffdf7f"
       id="path1239" />
    <path
       d="m -112.8189,763.46457 a 5.669291,5.669291 0 0 0 -5.66929,5.66929"
       style="fill:none;stroke:#ffdf7f"
       id="path1241" />
    <path
       d="M -112.8189,763.46457 H 390.4252"
       style="fill:none;stroke:#ffdf7f"
       id="path1243" />
    <path
       d="m 396.09449,769.13386 a 5.669291,5.669291 0 0 0 -5.66929,-5.66929"
       style="fill:none;stroke:#ffdf7f"
       id="path1245" />
    <path
       d="M 396.09449,1079.0551 V 769.13386"
       style="fill:none;stroke:#ffdf7f"
       id="path1247" />
    <path
       d="m 390.4252,1084.7244 a 5.669291,5.669291 0 0 0 5.66929,-5.6693"
       style="fill:none;stroke:#ffdf7f"
       id="path1249" />
    <path
       d="M -112.8189,1084.7244 H 390.4252"
       style="fill:none;stroke:#ffdf7f"
       id="path1251" />
    <path
       d="m -118.48819,1079.0551 a 5.669291,5.669291 0 0 0 5.66929,5.6693"
       style="fill:none;stroke:#ffdf7f"
       id="path1253" />
  </g>
  <g
     inkscape:groupmode="layer"
     inkscape:label="LCD"
     id="g1265"
     style="display:inline">
    <path
       d="M -45.259843,965.66929 H 323.24409"
       style="fill:none;stroke:#cc66b2"
       id="path1257" />
    <path
       d="M -45.259843,965.66929 V 812.59843"
       style="fill:none;stroke:#cc66b2"
       id="path1259" />
    <path
       d="M 323.24409,965.66929 V 812.59843"
       style="fill:none;stroke:#cc66b2"
       id="path1261" />
    <path
       d="M -45.259843,812.59843 H 323.24409"
       style="fill:none;stroke:#cc66b2"
       id="path1263" />
  </g>
  <g
     inkscape:groupmode="layer"
     inkscape:label="BUMP"
     id="g1267" />
  <g
     inkscape:groupmode="layer"
     inkscape:label="FRONT_FIT"
     id="g1301">
    <path
       d="M 89.887442,1145.928802 A 3.779528,3.779528 -0.000000 0 0 86.107915,1149.708330"
       style="fill:none;stroke:#FFBF00"
       id="path1269" />
    <path
       d="M 122.522007,1149.708330 A 3.779528,3.779528 -0.000000 0 0 118.742479,1145.928802"
       style="fill:none;stroke:#FFBF00"
       id="path1271" />
    <path
       d="M 282.061943,1146.959960 A 15.605250,15.605250 -0.000000 0 0 250.851443,1146.959960"
       style="fill:none;stroke:#FFBF00"
       id="path1273" />
    <path
       d="M 217.759454,1139.893155 A 7.559055,7.559055 -0.000000 0 0 210.200399,1132.334099"
       style="fill:none;stroke:#FFBF00"
       id="path1275" />
    <path
       d="M 160.193301,1132.334099 A 7.559055,7.559055 -0.000000 0 0 152.634246,1139.893155"
       style="fill:none;stroke:#FFBF00"
       id="path1277" />
    <path
       d="M 152.634246,1161.585820 152.634246,1139.893155"
       style="fill:none;stroke:#FFBF00"
       id="path1279" />
    <path
       d="M 217.759454,1161.585820 217.759454,1139.893155"
       style="fill:none;stroke:#FFBF00"
       id="path1281" />
    <path
       d="M 160.193301,1132.334099 210.200399,1132.334099"
       style="fill:none;stroke:#FFBF00"
       id="path1283" />
    <path
       d="M 152.634246,1161.585820 217.759454,1161.585820"
       style="fill:none;stroke:#FFBF00"
       id="path1285" />
    <path
       d="M 118.742479,1145.928802 89.887442,1145.928802"
       style="fill:none;stroke:#FFBF00"
       id="path1287" />
    <path
       d="M 86.107915,1163.563812 86.107915,1149.708330"
       style="fill:none;stroke:#FFBF00"
       id="path1289" />
    <path
       d="M 122.522007,1163.563812 122.522007,1149.708330"
       style="fill:none;stroke:#FFBF00"
       id="path1291" />
    <path
       d="M 86.107915,1163.563812 122.522007,1163.563812"
       style="fill:none;stroke:#FFBF00"
       id="path1293" />
    <path
       d="M 282.061943,1162.565210 250.851443,1162.565210"
       style="fill:none;stroke:#FFBF00"
       id="path1295" />
    <path
       d="M 250.851443,1146.959960 250.851443,1162.565210"
       style="fill:none;stroke:#FFBF00"
       id="path1297" />
    <path
       d="M 282.061943,1146.959960 282.061943,1162.565210"
       style="fill:none;stroke:#FFBF00"
       id="path1299" />
  </g>
  <desc
     id="desc1303">weather-station.dxf - scale = 1.000000, origin = (0.000000, 0.000000), method = manual</desc>
</svg>
