  0
SECTION
  2
HEADER
  9
$ACADVER
  1
AC1015
  9
$ACADMAINTVER
 70
    20
  9
$DWGCODEPAGE
  3
ANSI_1252
  9
$INSBASE
 10
0.0
 20
0.0
 30
0.0
  9
$EXTMIN
 10
-6.116808939246993
 20
-106.5
 30
0.0
  9
$EXTMAX
 10
486.6686605969219
 20
222.8470073288248
 30
0.0
  9
$LIMMIN
 10
-200.0
 20
-200.0
  9
$LIMMAX
 10
500.0
 20
500.0
  9
$ORTHOMODE
 70
     1
  9
$REGENMODE
 70
     1
  9
$FILLMODE
 70
     1
  9
$QTEXTMODE
 70
     0
  9
$MIRRTEXT
 70
     0
  9
$LTSCALE
 40
1.0
  9
$ATTMODE
 70
     1
  9
$TEXTSIZE
 40
2.5
  9
$TRACEWID
 40
1.0
  9
$TEXTSTYLE
  7
Standard
  9
$CLAYER
  8
ref
  9
$CELTYPE
  6
ByLayer
  9
$CECOLOR
 62
   256
  9
$CELTSCALE
 40
1.0
  9
$DISPSILH
 70
     0
  9
$DIMSCALE
 40
1.0
  9
$DIMASZ
 40
2.5
  9
$DIMEXO
 40
0.625
  9
$DIMDLI
 40
3.75
  9
$DIMRND
 40
0.0
  9
$DIMDLE
 40
0.0
  9
$DIMEXE
 40
1.25
  9
$DIMTP
 40
0.0
  9
$DIMTM
 40
0.0
  9
$DIMTXT
 40
2.5
  9
$DIMCEN
 40
2.5
  9
$DIMTSZ
 40
0.0
  9
$DIMTOL
 70
     0
  9
$DIMLIM
 70
     0
  9
$DIMTIH
 70
     0
  9
$DIMTOH
 70
     0
  9
$DIMSE1
 70
     0
  9
$DIMSE2
 70
     0
  9
$DIMTAD
 70
     1
  9
$DIMZIN
 70
     8
  9
$DIMBLK
  1

  9
$DIMASO
 70
     1
  9
$DIMSHO
 70
     1
  9
$DIMPOST
  1

  9
$DIMAPOST
  1

  9
$DIMALT
 70
     0
  9
$DIMALTD
 70
     3
  9
$DIMALTF
 40
0.03937007874016
  9
$DIMLFAC
 40
1.0
  9
$DIMTOFL
 70
     1
  9
$DIMTVP
 40
0.0
  9
$DIMTIX
 70
     0
  9
$DIMSOXD
 70
     0
  9
$DIMSAH
 70
     0
  9
$DIMBLK1
  1

  9
$DIMBLK2
  1

  9
$DIMSTYLE
  2
ISO-25
  9
$DIMCLRD
 70
     0
  9
$DIMCLRE
 70
     0
  9
$DIMCLRT
 70
     0
  9
$DIMTFAC
 40
1.0
  9
$DIMGAP
 40
0.625
  9
$DIMJUST
 70
     0
  9
$DIMSD1
 70
     0
  9
$DIMSD2
 70
     0
  9
$DIMTOLJ
 70
     0
  9
$DIMTZIN
 70
     8
  9
$DIMALTZ
 70
     0
  9
$DIMALTTZ
 70
     0
  9
$DIMUPT
 70
     0
  9
$DIMDEC
 70
     2
  9
$DIMTDEC
 70
     2
  9
$DIMALTU
 70
     2
  9
$DIMALTTD
 70
     3
  9
$DIMTXSTY
  7
Standard
  9
$DIMAUNIT
 70
     0
  9
$DIMADEC
 70
     0
  9
$DIMALTRND
 40
0.0
  9
$DIMAZIN
 70
     0
  9
$DIMDSEP
 70
    44
  9
$DIMATFIT
 70
     3
  9
$DIMFRAC
 70
     0
  9
$DIMLDRBLK
  1

  9
$DIMLUNIT
 70
     2
  9
$DIMLWD
 70
    -2
  9
$DIMLWE
 70
    -2
  9
$DIMTMOVE
 70
     0
  9
$LUNITS
 70
     2
  9
$LUPREC
 70
     4
  9
$SKETCHINC
 40
1.0
  9
$FILLETRAD
 40
2.5
  9
$AUNITS
 70
     0
  9
$AUPREC
 70
     0
  9
$MENU
  1
.
  9
$ELEVATION
 40
0.0
  9
$PELEVATION
 40
0.0
  9
$THICKNESS
 40
0.0
  9
$LIMCHECK
 70
     0
  9
$CHAMFERA
 40
0.0
  9
$CHAMFERB
 40
0.0
  9
$CHAMFERC
 40
0.0
  9
$CHAMFERD
 40
0.0
  9
$SKPOLY
 70
     0
  9
$TDCREATE
 40
2459227.838663970
  9
$TDUCREATE
 40
2459228.046997303
  9
$TDUPDATE
 40
2459238.558473900
  9
$TDUUPDATE
 40
2459238.766807234
  9
$TDINDWG
 40
1.3551465741
  9
$TDUSRTIMER
 40
1.3551448148
  9
$USRTIMER
 70
     1
  9
$ANGBASE
 50
0.0
  9
$ANGDIR
 70
     0
  9
$PDMODE
 70
     0
  9
$PDSIZE
 40
0.0
  9
$PLINEWID
 40
0.0
  9
$SPLFRAME
 70
     0
  9
$SPLINETYPE
 70
     6
  9
$SPLINESEGS
 70
     8
  9
$HANDSEED
  5
30D
  9
$SURFTAB1
 70
     6
  9
$SURFTAB2
 70
     6
  9
$SURFTYPE
 70
     6
  9
$SURFU
 70
     6
  9
$SURFV
 70
     6
  9
$UCSBASE
  2

  9
$UCSNAME
  2

  9
$UCSORG
 10
0.0
 20
0.0
 30
0.0
  9
$UCSXDIR
 10
1.0
 20
0.0
 30
0.0
  9
$UCSYDIR
 10
0.0
 20
1.0
 30
0.0
  9
$UCSORTHOREF
  2

  9
$UCSORTHOVIEW
 70
     0
  9
$UCSORGTOP
 10
0.0
 20
0.0
 30
0.0
  9
$UCSORGBOTTOM
 10
0.0
 20
0.0
 30
0.0
  9
$UCSORGLEFT
 10
0.0
 20
0.0
 30
0.0
  9
$UCSORGRIGHT
 10
0.0
 20
0.0
 30
0.0
  9
$UCSORGFRONT
 10
0.0
 20
0.0
 30
0.0
  9
$UCSORGBACK
 10
0.0
 20
0.0
 30
0.0
  9
$PUCSBASE
  2

  9
$PUCSNAME
  2

  9
$PUCSORG
 10
0.0
 20
0.0
 30
0.0
  9
$PUCSXDIR
 10
1.0
 20
0.0
 30
0.0
  9
$PUCSYDIR
 10
0.0
 20
1.0
 30
0.0
  9
$PUCSORTHOREF
  2

  9
$PUCSORTHOVIEW
 70
     0
  9
$PUCSORGTOP
 10
0.0
 20
0.0
 30
0.0
  9
$PUCSORGBOTTOM
 10
0.0
 20
0.0
 30
0.0
  9
$PUCSORGLEFT
 10
0.0
 20
0.0
 30
0.0
  9
$PUCSORGRIGHT
 10
0.0
 20
0.0
 30
0.0
  9
$PUCSORGFRONT
 10
0.0
 20
0.0
 30
0.0
  9
$PUCSORGBACK
 10
0.0
 20
0.0
 30
0.0
  9
$USERI1
 70
     0
  9
$USERI2
 70
     0
  9
$USERI3
 70
     0
  9
$USERI4
 70
     0
  9
$USERI5
 70
     0
  9
$USERR1
 40
0.0
  9
$USERR2
 40
0.0
  9
$USERR3
 40
0.0
  9
$USERR4
 40
0.0
  9
$USERR5
 40
0.0
  9
$WORLDVIEW
 70
     1
  9
$SHADEDGE
 70
     3
  9
$SHADEDIF
 70
    70
  9
$TILEMODE
 70
     1
  9
$MAXACTVP
 70
    64
  9
$PINSBASE
 10
0.0
 20
0.0
 30
0.0
  9
$PLIMCHECK
 70
     0
  9
$PEXTMIN
 10
0.0
 20
0.0
 30
0.0
  9
$PEXTMAX
 10
0.0
 20
0.0
 30
0.0
  9
$PLIMMIN
 10
0.0
 20
0.0
  9
$PLIMMAX
 10
12.0
 20
9.0
  9
$UNITMODE
 70
     0
  9
$VISRETAIN
 70
     1
  9
$PLINEGEN
 70
     0
  9
$PSLTSCALE
 70
     1
  9
$TREEDEPTH
 70
  3020
  9
$CMLSTYLE
  2
Standard
  9
$CMLJUST
 70
     0
  9
$CMLSCALE
 40
20.0
  9
$PROXYGRAPHICS
 70
     1
  9
$MEASUREMENT
 70
     1
  9
$CELWEIGHT
370
    -1
  9
$ENDCAPS
280
     0
  9
$JOINSTYLE
280
     0
  9
$LWDISPLAY
290
     0
  9
$INSUNITS
 70
     4
  9
$HYPERLINKBASE
  1

  9
$STYLESHEET
  1

  9
$XEDIT
290
     1
  9
$CEPSNTYPE
380
     0
  9
$PSTYLEMODE
290
     1
  9
$FINGERPRINTGUID
  2
{FDEAD578-A652-11D2-9A35-0060089B3A3F}
  9
$VERSIONGUID
  2
{24E802BD-BC04-4780-816A-363953D27E35}
  9
$EXTNAMES
290
     1
  9
$PSVPSCALE
 40
0.0
  9
$OLESTARTUP
290
     0
  0
ENDSEC
  0
SECTION
  2
CLASSES
  0
CLASS
  1
ACDBDICTIONARYWDFLT
  2
AcDbDictionaryWithDefault
  3
ObjectDBX Classes
 90
        0
280
     0
281
     0
  0
CLASS
  1
ACDBPLACEHOLDER
  2
AcDbPlaceHolder
  3
ObjectDBX Classes
 90
        0
280
     0
281
     0
  0
CLASS
  1
LAYOUT
  2
AcDbLayout
  3
ObjectDBX Classes
 90
        0
280
     0
281
     0
  0
CLASS
  1
DICTIONARYVAR
  2
AcDbDictionaryVar
  3
ObjectDBX Classes
 90
        0
280
     0
281
     0
  0
ENDSEC
  0
SECTION
  2
TABLES
  0
TABLE
  2
VPORT
  5
8
330
0
100
AcDbSymbolTable
 70
    33
  0
VPORT
  5
303
330
8
100
AcDbSymbolTableRecord
100
AcDbViewportTableRecord
  2
*Active
 70
     0
 10
0.0
 20
0.0
 11
1.0
 21
1.0
 12
371.4844567927318
 22
62.42550625780982
 13
0.0
 23
0.0
 14
10.0
 24
10.0
 15
10.0
 25
10.0
 16
0.0
 26
0.0
 36
1.0
 17
0.0
 27
0.0
 37
0.0
 40
276.9194788883936
 41
2.206134969325153
 42
50.0
 43
0.0
 44
0.0
 50
0.0
 51
0.0
 71
     0
 72
  1000
 73
     1
 74
     2
 75
     0
 76
     1
 77
     0
 78
     0
281
     0
 65
     1
110
0.0
120
0.0
130
0.0
111
1.0
121
0.0
131
0.0
112
0.0
122
1.0
132
0.0
 79
     0
146
0.0
  0
ENDTAB
  0
TABLE
  2
LTYPE
  5
5
330
0
100
AcDbSymbolTable
 70
     1
  0
LTYPE
  5
14
330
5
100
AcDbSymbolTableRecord
100
AcDbLinetypeTableRecord
  2
ByBlock
 70
     0
  3

 72
    65
 73
     0
 40
0.0
  0
LTYPE
  5
15
330
5
100
AcDbSymbolTableRecord
100
AcDbLinetypeTableRecord
  2
ByLayer
 70
     0
  3

 72
    65
 73
     0
 40
0.0
  0
LTYPE
  5
16
330
5
100
AcDbSymbolTableRecord
100
AcDbLinetypeTableRecord
  2
Continuous
 70
     0
  3
Solid line
 72
    65
 73
     0
 40
0.0
  0
ENDTAB
  0
TABLE
  2
LAYER
  5
2
330
0
100
AcDbSymbolTable
 70
    17
  0
LAYER
  5
10
330
2
100
AcDbSymbolTableRecord
100
AcDbLayerTableRecord
  2
0
 70
     0
 62
     7
  6
Continuous
370
    -3
390
F
  0
LAYER
  5
8F
330
2
100
AcDbSymbolTableRecord
100
AcDbLayerTableRecord
  2
brace
 70
     0
 62
   131
  6
Continuous
370
    -3
390
F
  0
LAYER
  5
B9
330
2
100
AcDbSymbolTableRecord
100
AcDbLayerTableRecord
  2
base
 70
     0
 62
    11
  6
Continuous
370
    -3
390
F
  0
LAYER
  5
BA
330
2
100
AcDbSymbolTableRecord
100
AcDbLayerTableRecord
  2
stand
 70
     0
 62
    61
  6
Continuous
370
    -3
390
F
  0
LAYER
  5
BB
330
2
100
AcDbSymbolTableRecord
100
AcDbLayerTableRecord
  2
cross
 70
     0
 62
   181
  6
Continuous
370
    -3
390
F
  0
LAYER
  5
EB
330
2
100
AcDbSymbolTableRecord
100
AcDbLayerTableRecord
  2
b0
 70
     0
 62
    11
  6
Continuous
370
    -3
390
F
  0
LAYER
  5
EC
330
2
100
AcDbSymbolTableRecord
100
AcDbLayerTableRecord
  2
b1
 70
     0
 62
    11
  6
Continuous
370
    -3
390
F
  0
LAYER
  5
ED
330
2
100
AcDbSymbolTableRecord
100
AcDbLayerTableRecord
  2
b2
 70
     0
 62
    11
  6
Continuous
370
    -3
390
F
  0
LAYER
  5
EE
330
2
100
AcDbSymbolTableRecord
100
AcDbLayerTableRecord
  2
b3
 70
     0
 62
    11
  6
Continuous
370
    -3
390
F
  0
LAYER
  5
118
330
2
100
AcDbSymbolTableRecord
100
AcDbLayerTableRecord
  2
box-front
 70
     0
 62
   191
  6
Continuous
370
    -3
390
F
  0
LAYER
  5
119
330
2
100
AcDbSymbolTableRecord
100
AcDbLayerTableRecord
  2
box-bottom
 70
     0
 62
   192
  6
Continuous
370
    -3
390
F
  0
LAYER
  5
11A
330
2
100
AcDbSymbolTableRecord
100
AcDbLayerTableRecord
  2
box-side
 70
     0
 62
   162
  6
Continuous
370
    -3
390
F
  0
LAYER
  5
1D8
330
2
100
AcDbSymbolTableRecord
100
AcDbLayerTableRecord
  2
notch
 70
     0
 62
   121
  6
Continuous
370
    -3
390
F
  0
LAYER
  5
1E8
330
2
100
AcDbSymbolTableRecord
100
AcDbLayerTableRecord
  2
tool
 70
     0
 62
   193
  6
Continuous
370
    -3
390
F
  0
LAYER
  5
26C
330
2
100
AcDbSymbolTableRecord
100
AcDbLayerTableRecord
  2
box-tabs
 70
     0
 62
   162
  6
Continuous
370
    -3
390
F
  0
LAYER
  5
26D
330
2
100
AcDbSymbolTableRecord
100
AcDbLayerTableRecord
  2
box-walls
 70
     0
 62
   211
  6
Continuous
370
    -3
390
F
  0
LAYER
  5
278
330
2
100
AcDbSymbolTableRecord
100
AcDbLayerTableRecord
  2
ref
 70
     0
 62
     9
  6
Continuous
370
    -3
390
F
  0
ENDTAB
  0
TABLE
  2
STYLE
  5
3
330
0
100
AcDbSymbolTable
 70
     1
  0
STYLE
  5
11
330
3
100
AcDbSymbolTableRecord
100
AcDbTextStyleTableRecord
  2
Standard
 70
     0
 40
0.0
 41
1.0
 50
0.0
 71
     0
 42
2.5
  3
txt
  4

  0
ENDTAB
  0
TABLE
  2
VIEW
  5
6
330
0
100
AcDbSymbolTable
 70
     0
  0
ENDTAB
  0
TABLE
  2
UCS
  5
7
330
0
100
AcDbSymbolTable
 70
     0
  0
ENDTAB
  0
TABLE
  2
APPID
  5
9
330
0
100
AcDbSymbolTable
 70
     1
  0
APPID
  5
12
330
9
100
AcDbSymbolTableRecord
100
AcDbRegAppTableRecord
  2
ACAD
 70
     0
  0
ENDTAB
  0
TABLE
  2
DIMSTYLE
  5
A
330
0
100
AcDbSymbolTable
 70
     1
100
AcDbDimStyleTable
 71
     0
  0
DIMSTYLE
105
27
330
A
100
AcDbSymbolTableRecord
100
AcDbDimStyleTableRecord
  2
ISO-25
 70
     0
 41
2.5
 42
0.625
 43
3.75
 44
1.25
 73
     0
 74
     0
 77
     1
 78
     8
140
2.5
141
2.5
143
0.03937007874016
147
0.625
171
     3
172
     1
271
     2
272
     2
274
     3
278
    44
283
     0
284
     8
340
11
  0
ENDTAB
  0
TABLE
  2
BLOCK_RECORD
  5
1
330
0
100
AcDbSymbolTable
 70
     1
  0
BLOCK_RECORD
  5
1F
330
1
100
AcDbSymbolTableRecord
100
AcDbBlockTableRecord
  2
*Model_Space
340
22
  0
BLOCK_RECORD
  5
50
330
1
100
AcDbSymbolTableRecord
100
AcDbBlockTableRecord
  2
*Paper_Space
340
51
  0
BLOCK_RECORD
  5
55
330
1
100
AcDbSymbolTableRecord
100
AcDbBlockTableRecord
  2
*Paper_Space0
340
56
  0
ENDTAB
  0
ENDSEC
  0
SECTION
  2
BLOCKS
  0
BLOCK
  5
20
330
1F
100
AcDbEntity
  8
0
100
AcDbBlockBegin
  2
*Model_Space
 70
     0
 10
0.0
 20
0.0
 30
0.0
  3
*Model_Space
  1

  0
ENDBLK
  5
21
330
1F
100
AcDbEntity
  8
0
100
AcDbBlockEnd
  0
BLOCK
  5
52
330
50
100
AcDbEntity
 67
     1
  8
0
100
AcDbBlockBegin
  2
*Paper_Space
 70
     0
 10
0.0
 20
0.0
 30
0.0
  3
*Paper_Space
  1

  0
ENDBLK
  5
53
330
50
100
AcDbEntity
 67
     1
  8
0
100
AcDbBlockEnd
  0
BLOCK
  5
57
330
55
100
AcDbEntity
  8
0
100
AcDbBlockBegin
  2
*Paper_Space0
 70
     0
 10
0.0
 20
0.0
 30
0.0
  3
*Paper_Space0
  1

  0
ENDBLK
  5
58
330
55
100
AcDbEntity
  8
0
100
AcDbBlockEnd
  0
ENDSEC
  0
SECTION
  2
ENTITIES
  0
LINE
  5
B1
330
1F
100
AcDbEntity
  8
b1
100
AcDbLine
 10
92.0
 20
2.0
 30
0.0
 11
51.99999999999999
 21
2.0
 31
0.0
  0
LINE
  5
B2
330
1F
100
AcDbEntity
  8
b1
100
AcDbLine
 10
91.99999999999999
 20
102.0
 30
0.0
 11
52.0
 21
102.0
 31
0.0
  0
LINE
  5
B4
330
1F
100
AcDbEntity
  8
b1
100
AcDbLine
 10
122.0
 20
72.0
 30
0.0
 11
122.0
 21
32.0
 31
0.0
  0
ARC
  5
B5
330
1F
100
AcDbEntity
  8
b1
100
AcDbCircle
 10
52.0
 20
52.0
 30
0.0
 40
50.0
100
AcDbArc
 50
180.0
 51
270.0
  0
ARC
  5
B6
330
1F
100
AcDbEntity
  8
b1
100
AcDbCircle
 10
52.0
 20
52.0
 30
0.0
 40
50.0
100
AcDbArc
 50
90.0
 51
180.0
  0
ARC
  5
B7
330
1F
100
AcDbEntity
  8
b1
100
AcDbCircle
 10
91.99999999999999
 20
72.0
 30
0.0
 40
30.0
100
AcDbArc
 50
0.0
 51
90.0
  0
ARC
  5
B8
330
1F
100
AcDbEntity
  8
b1
100
AcDbCircle
 10
92.0
 20
32.0
 30
0.0
 40
30.0
100
AcDbArc
 50
270.0
 51
0.0000000000000127
  0
LINE
  5
D3
330
1F
100
AcDbEntity
  8
cross
100
AcDbLine
 10
54.53939138741444
 20
40.86602540378439
 30
0.0
 11
54.53939138741444
 21
0.0
 31
0.0
  0
LINE
  5
D4
330
1F
100
AcDbEntity
  8
cross
100
AcDbLine
 10
57.53939138741444
 20
42.59807621135331
 30
0.0
 11
57.53939138741444
 21
0.0
 31
0.0
  0
LINE
  5
D5
330
1F
100
AcDbEntity
  8
cross
100
AcDbLine
 10
54.53939138741444
 20
40.86602540378439
 30
0.0
 11
56.03939138741444
 21
40.0
 31
0.0
  0
LINE
  5
D6
330
1F
100
AcDbEntity
  8
cross
100
AcDbLine
 10
57.53939138741444
 20
42.59807621135331
 30
0.0
 11
56.03939138741444
 21
40.0
 31
0.0
  0
LINE
  5
D7
330
1F
100
AcDbEntity
  8
cross
100
AcDbLine
 10
54.53939138741444
 20
0.0
 30
0.0
 11
57.53939138741444
 21
0.0
 31
0.0
  0
LINE
  5
E1
330
1F
100
AcDbEntity
  8
b0
100
AcDbLine
 10
92.0
 20
0.0
 30
0.0
 11
51.99999999999999
 21
0.0
 31
0.0
  0
ARC
  5
E2
330
1F
100
AcDbEntity
  8
b0
100
AcDbCircle
 10
92.0
 20
32.0
 30
0.0
 40
32.0
100
AcDbArc
 50
270.0
 51
0.0000000000000127
  0
LINE
  5
E3
330
1F
100
AcDbEntity
  8
b0
100
AcDbLine
 10
124.0
 20
72.0
 30
0.0
 11
124.0
 21
32.0
 31
0.0
  0
ARC
  5
E4
330
1F
100
AcDbEntity
  8
b0
100
AcDbCircle
 10
91.99999999999999
 20
72.0
 30
0.0
 40
32.0
100
AcDbArc
 50
0.0
 51
90.0
  0
LINE
  5
E5
330
1F
100
AcDbEntity
  8
b0
100
AcDbLine
 10
91.99999999999999
 20
104.0
 30
0.0
 11
52.0
 21
104.0
 31
0.0
  0
ARC
  5
E6
330
1F
100
AcDbEntity
  8
b0
100
AcDbCircle
 10
52.0
 20
52.0
 30
0.0
 40
52.0
100
AcDbArc
 50
90.0
 51
180.0
  0
ARC
  5
E7
330
1F
100
AcDbEntity
  8
b0
100
AcDbCircle
 10
52.0
 20
52.0
 30
0.0
 40
52.0
100
AcDbArc
 50
180.0
 51
270.0
  0
CIRCLE
  5
E9
330
1F
100
AcDbEntity
  8
b2
100
AcDbCircle
 10
52.0
 20
52.0
 30
0.0
 40
40.0
  0
CIRCLE
  5
F9
330
1F
100
AcDbEntity
  8
b3
100
AcDbCircle
 10
52.0
 20
52.0
 30
0.0
 40
36.0
  0
LINE
  5
1AD
330
1F
100
AcDbEntity
  8
stand
100
AcDbLine
 10
28.01109578013691
 20
54.58194920934713
 30
0.0
 11
37.21975661020642
 21
40.34828702660755
 31
0.0
  0
LINE
  5
1AE
330
1F
100
AcDbEntity
  8
stand
100
AcDbLine
 10
39.64289257647812
 20
6.736325147202336
 30
0.0
 11
36.55099549498795
 21
0.0
 31
0.0
  0
LINE
  5
1B2
330
1F
100
AcDbEntity
  8
stand
100
AcDbLine
 10
79.96813141004674
 20
-0.0000000000000284
 30
0.0
 11
36.55099549498795
 21
0.0
 31
0.0
  0
LINE
  5
1B5
330
1F
100
AcDbEntity
  8
stand
100
AcDbLine
 10
28.01109578013693
 20
54.58194920934713
 30
0.0
 11
28.70400045596185
 21
55.78209531267785
 31
0.0
  0
LINE
  5
1B6
330
1F
100
AcDbEntity
  8
stand
100
AcDbLine
 10
28.70400045596185
 20
55.78209531267785
 30
0.0
 11
56.03939138741444
 21
40.0
 31
0.0
  0
LINE
  5
1B7
330
1F
100
AcDbEntity
  8
stand
100
AcDbLine
 10
56.03939138741444
 20
40.0
 30
0.0
 11
72.18788727916678
 21
67.97001535033221
 31
0.0
  0
LINE
  5
1B8
330
1F
100
AcDbEntity
  8
stand
100
AcDbLine
 10
72.18788727916678
 20
67.97001535033221
 30
0.0
 11
73.68573172964605
 21
67.10523445364387
 31
0.0
  0
LINE
  5
1B9
330
1F
100
AcDbEntity
  8
stand
100
AcDbLine
 10
73.68573172964605
 20
67.10523445364387
 30
0.0
 11
66.21995777819169
 21
37.1978413172803
 31
0.0
  0
LINE
  5
1BA
330
1F
100
AcDbEntity
  8
stand
100
AcDbLine
 10
77.75265414678776
 20
1.848857282939462
 30
0.0
 11
79.96813141004671
 21
-0.0000000000000284
 31
0.0
  0
ARC
  5
1BB
330
1F
100
AcDbEntity
  8
stand
100
AcDbCircle
 10
100.1779018563906
 20
28.72092949858649
 30
0.0
 40
35.0
100
AcDbArc
 50
165.9837261851817
 51
230.1543692151736
  0
ARC
  5
1BC
330
1F
100
AcDbEntity
  8
stand
100
AcDbCircle
 10
7.83352442836491
 20
21.3364654896032
 30
0.0
 40
35.0
100
AcDbArc
 50
335.3454121376927
 51
32.90139559743189
  0
LINE
  5
1D9
330
1F
100
AcDbEntity
  8
notch
100
AcDbLine
 10
49.06009757356422
 20
44.02949716217992
 30
0.0
 11
69.09333685059792
 21
32.46330107284433
 31
0.0
  0
LINE
  5
1DB
330
1F
100
AcDbEntity
  8
notch
100
AcDbLine
 10
72.4638115150692
 20
38.30113443733227
 30
0.0
 11
69.09333685059792
 21
32.46330107284433
 31
0.0
  0
LINE
  5
1DC
330
1F
100
AcDbEntity
  8
notch
100
AcDbLine
 10
52.43057223803553
 20
49.86733052666787
 30
0.0
 11
49.06009757356422
 21
44.02949716217992
 31
0.0
  0
LINE
  5
1DD
330
1F
100
AcDbEntity
  8
notch
100
AcDbLine
 10
52.43057223803553
 20
49.86733052666787
 30
0.0
 11
72.4638115150692
 21
38.30113443733227
 31
0.0
  0
LINE
  5
1E9
330
1F
100
AcDbEntity
  8
tool
100
AcDbLine
 10
40.0
 20
80.0
 30
0.0
 11
40.0
 21
70.0
 31
0.0
  0
LINE
  5
1EA
330
1F
100
AcDbEntity
  8
tool
100
AcDbLine
 10
40.0
 20
70.0
 30
0.0
 11
80.0
 21
70.0
 31
0.0
  0
LINE
  5
1EB
330
1F
100
AcDbEntity
  8
tool
100
AcDbLine
 10
80.0
 20
70.0
 30
0.0
 11
80.0
 21
80.0
 31
0.0
  0
LINE
  5
1EC
330
1F
100
AcDbEntity
  8
tool
100
AcDbLine
 10
80.0
 20
80.0
 30
0.0
 11
40.0
 21
80.0
 31
0.0
  0
LINE
  5
221
330
1F
100
AcDbEntity
  8
box-bottom
100
AcDbLine
 10
229.5
 20
50.0
 30
0.0
 11
371.5
 21
50.0
 31
0.0
  0
LINE
  5
222
330
1F
100
AcDbEntity
  8
box-bottom
100
AcDbLine
 10
227.5
 20
52.0
 30
0.0
 11
227.5
 21
146.0
 31
0.0
  0
LINE
  5
223
330
1F
100
AcDbEntity
  8
box-bottom
100
AcDbLine
 10
373.5
 20
52.00000000000001
 30
0.0
 11
373.5
 21
146.0
 31
0.0
  0
ARC
  5
224
330
1F
100
AcDbEntity
  8
box-bottom
100
AcDbCircle
 10
229.5
 20
52.0
 30
0.0
 40
2.0
100
AcDbArc
 50
180.0
 51
270.0
  0
ARC
  5
225
330
1F
100
AcDbEntity
  8
box-bottom
100
AcDbCircle
 10
371.5
 20
52.00000000000001
 30
0.0
 40
2.0
100
AcDbArc
 50
270.0
 51
0.0
  0
LINE
  5
226
330
1F
100
AcDbEntity
  8
box-walls
100
AcDbLine
 10
230.0
 20
52.5
 30
0.0
 11
370.9999999999999
 21
52.5
 31
0.0
  0
LINE
  5
228
330
1F
100
AcDbEntity
  8
box-bottom
100
AcDbLine
 10
229.5
 20
148.0
 30
0.0
 11
371.5
 21
148.0
 31
0.0
  0
LINE
  5
229
330
1F
100
AcDbEntity
  8
box-walls
100
AcDbLine
 10
230.0
 20
145.5
 30
0.0
 11
371.0000000000001
 21
145.5
 31
0.0
  0
LINE
  5
22A
330
1F
100
AcDbEntity
  8
box-walls
100
AcDbLine
 10
230.0
 20
52.5
 30
0.0
 11
230.0
 21
145.5
 31
0.0
  0
LINE
  5
22B
330
1F
100
AcDbEntity
  8
box-walls
100
AcDbLine
 10
370.9999999999999
 20
52.5
 30
0.0
 11
371.0000000000001
 21
145.5
 31
0.0
  0
ARC
  5
22C
330
1F
100
AcDbEntity
  8
box-bottom
100
AcDbCircle
 10
229.5
 20
146.0
 30
0.0
 40
2.0
100
AcDbArc
 50
90.0
 51
180.0
  0
ARC
  5
22D
330
1F
100
AcDbEntity
  8
box-bottom
100
AcDbCircle
 10
371.5
 20
146.0
 30
0.0
 40
2.0
100
AcDbArc
 50
0.0
 51
90.0
  0
LINE
  5
237
330
1F
100
AcDbEntity
  8
box-side
100
AcDbLine
 10
397.5
 20
7.0
 30
0.0
 11
458.4343122199454
 21
7.0
 31
0.0
  0
LINE
  5
239
330
1F
100
AcDbEntity
  8
box-side
100
AcDbLine
 10
471.5656877800546
 20
31.00000000000001
 30
0.0
 11
482.0
 21
31.00000000000001
 31
0.0
  0
LINE
  5
23D
330
1F
100
AcDbEntity
  8
box-side
100
AcDbLine
 10
463.3292143186334
 20
10.98022872944003
 30
0.0
 11
466.6707856813666
 21
27.01977127055999
 31
0.0
  0
ARC
  5
23E
330
1F
100
AcDbEntity
  8
box-side
100
AcDbCircle
 10
458.4343122199454
 20
12.0
 30
0.0
 40
5.0
100
AcDbArc
 50
270.0
 51
348.2317110679797
  0
ARC
  5
23F
330
1F
100
AcDbEntity
  8
box-side
100
AcDbCircle
 10
471.5656877800546
 20
26.00000000000001
 30
0.0
 40
5.0
100
AcDbArc
 50
90.0
 51
168.2317110679796
  0
LINE
  5
241
330
1F
100
AcDbEntity
  8
box-side
100
AcDbLine
 10
387.5
 20
31.0
 30
0.0
 11
392.5
 21
31.0
 31
0.0
  0
LINE
  5
243
330
1F
100
AcDbEntity
  8
box-side
100
AcDbLine
 10
395.0
 20
9.499999999999996
 30
0.0
 11
395.0
 21
28.50000000000001
 31
0.0
  0
ARC
  5
245
330
1F
100
AcDbEntity
  8
box-side
100
AcDbCircle
 10
397.5
 20
9.5
 30
0.0
 40
2.5
100
AcDbArc
 50
180.0
 51
270.0
  0
ARC
  5
246
330
1F
100
AcDbEntity
  8
box-side
100
AcDbCircle
 10
392.5
 20
28.50000000000001
 30
0.0
 40
2.5
100
AcDbArc
 50
0.0
 51
90.0
  0
LINE
  5
248
330
1F
100
AcDbEntity
  8
box-front
100
AcDbLine
 10
227.5
 20
-19.0
 30
0.0
 11
256.3461179679781
 21
-19.00000000000001
 31
0.0
  0
LINE
  5
249
330
1F
100
AcDbEntity
  8
box-front
100
AcDbLine
 10
227.5
 20
-50.0
 30
0.0
 11
258.846117967978
 21
-50.0
 31
0.0
  0
LINE
  5
258
330
1F
100
AcDbEntity
  8
box-tabs
100
AcDbLine
 10
258.55
 20
0.0
 30
0.0
 11
258.5500000000001
 21
6.0
 31
0.0
  0
LINE
  5
25A
330
1F
100
AcDbEntity
  8
box-tabs
100
AcDbLine
 10
262.35
 20
0.0
 30
0.0
 11
262.3499999999999
 21
6.0
 31
0.0
  0
LINE
  5
25C
330
1F
100
AcDbEntity
  8
box-tabs
100
AcDbLine
 10
258.55
 20
0.0
 30
0.0
 11
262.35
 21
0.0
 31
0.0
  0
LINE
  5
25D
330
1F
100
AcDbEntity
  8
box-tabs
100
AcDbLine
 10
258.5500000000001
 20
6.0
 30
0.0
 11
262.3499999999999
 21
6.0
 31
0.0
  0
LINE
  5
25E
330
1F
100
AcDbEntity
  8
box-tabs
100
AcDbLine
 10
342.4499999999999
 20
6.0
 30
0.0
 11
338.65
 21
6.0
 31
0.0
  0
LINE
  5
25F
330
1F
100
AcDbEntity
  8
box-tabs
100
AcDbLine
 10
342.45
 20
0.0
 30
0.0
 11
338.65
 21
0.0
 31
0.0
  0
LINE
  5
260
330
1F
100
AcDbEntity
  8
box-tabs
100
AcDbLine
 10
338.65
 20
0.0
 30
0.0
 11
338.65
 21
6.0
 31
0.0
  0
LINE
  5
261
330
1F
100
AcDbEntity
  8
box-tabs
100
AcDbLine
 10
342.45
 20
0.0
 30
0.0
 11
342.4499999999999
 21
6.0
 31
0.0
  0
LINE
  5
262
330
1F
100
AcDbEntity
  8
box-front
100
AcDbLine
 10
258.846117967978
 20
-50.0
 30
0.0
 11
258.846117967978
 21
-21.50000000000001
 31
0.0
  0
LINE
  5
263
330
1F
100
AcDbEntity
  8
box-front
100
AcDbLine
 10
227.5
 20
-50.0
 30
0.0
 11
227.5
 21
-19.0
 31
0.0
  0
LINE
  5
279
330
1F
100
AcDbEntity
  8
ref
100
AcDbLine
 10
227.5
 20
50.0
 30
0.0
 11
207.6131492570425
 21
50.0
 31
0.0
  0
LINE
  5
27A
330
1F
100
AcDbEntity
  8
ref
100
AcDbLine
 10
227.5
 20
50.0
 30
0.0
 11
227.5
 21
43.83258445592026
 31
0.0
  0
LINE
  5
27B
330
1F
100
AcDbEntity
  8
ref
100
AcDbLine
 10
227.5000000000001
 20
0.0
 30
0.0
 11
221.3748126010032
 21
0.0
 31
0.0
  0
LINE
  5
27C
330
1F
100
AcDbEntity
  8
ref
100
AcDbLine
 10
227.5000000000001
 20
0.0
 30
0.0
 11
227.5
 21
-2.852352517462804
 31
0.0
  0
LINE
  5
292
330
1F
100
AcDbEntity
  8
ref
100
AcDbLine
 10
387.5
 20
0.0
 30
0.0
 11
379.639226398479
 21
0.0
 31
0.0
  0
LINE
  5
293
330
1F
100
AcDbEntity
  8
ref
100
AcDbLine
 10
387.5
 20
0.0
 30
0.0
 11
387.5
 21
-9.94596060334652
 31
0.0
  0
LINE
  5
294
330
1F
100
AcDbEntity
  8
box-side
100
AcDbLine
 10
387.5
 20
31.0
 30
0.0
 11
387.5
 21
52.15656107034806
 31
0.0
  0
LINE
  5
295
330
1F
100
AcDbEntity
  8
box-side
100
AcDbLine
 10
387.5
 20
52.15656107034806
 30
0.0
 11
482.0000000000002
 21
52.15656107034806
 31
0.0
  0
LINE
  5
296
330
1F
100
AcDbEntity
  8
box-side
100
AcDbLine
 10
482.0
 20
31.00000000000001
 30
0.0
 11
482.0000000000002
 21
52.15656107034806
 31
0.0
  0
ARC
  5
2DF
330
1F
100
AcDbEntity
  8
box-front
100
AcDbCircle
 10
256.3461179679781
 20
-21.50000000000001
 30
0.0
 40
2.5
100
AcDbArc
 50
359.9999999999999
 51
90.0
  0
ARC
  5
2EA
330
1F
100
AcDbEntity
  8
box-front
100
AcDbCircle
 10
344.6538820320218
 20
-21.50000000000001
 30
0.0
 40
2.5
100
AcDbArc
 50
90.0
 51
180.0000000000001
  0
LINE
  5
2EB
330
1F
100
AcDbEntity
  8
box-front
100
AcDbLine
 10
373.4999999999999
 20
-50.0
 30
0.0
 11
373.4999999999999
 21
-19.0
 31
0.0
  0
LINE
  5
2EC
330
1F
100
AcDbEntity
  8
box-front
100
AcDbLine
 10
342.1538820320219
 20
-50.0
 30
0.0
 11
342.1538820320218
 21
-21.50000000000001
 31
0.0
  0
LINE
  5
2ED
330
1F
100
AcDbEntity
  8
box-front
100
AcDbLine
 10
373.4999999999999
 20
-50.0
 30
0.0
 11
342.1538820320219
 21
-50.0
 31
0.0
  0
LINE
  5
2EE
330
1F
100
AcDbEntity
  8
box-front
100
AcDbLine
 10
373.4999999999999
 20
-19.0
 30
0.0
 11
344.6538820320218
 21
-19.00000000000001
 31
0.0
  0
ENDSEC
  0
SECTION
  2
OBJECTS
  0
DICTIONARY
  5
C
330
0
100
AcDbDictionary
281
     1
  3
ACAD_COLOR
350
6B
  3
ACAD_GROUP
350
D
  3
ACAD_LAYOUT
350
1A
  3
ACAD_MATERIAL
350
6A
  3
ACAD_MLINESTYLE
350
17
  3
ACAD_PLOTSETTINGS
350
19
  3
ACAD_PLOTSTYLENAME
350
E
  3
ACDBHEADERROUNDTRIPXREC
350
304
  3
AcDbVariableDictionary
350
5E
  0
DICTIONARY
  5
6B
102
{ACAD_REACTORS
330
C
102
}
330
C
100
AcDbDictionary
281
     1
  0
DICTIONARY
  5
D
102
{ACAD_REACTORS
330
C
102
}
330
C
100
AcDbDictionary
281
     1
  0
DICTIONARY
  5
1A
102
{ACAD_REACTORS
330
C
102
}
330
C
100
AcDbDictionary
281
     1
  3
Layout1
350
51
  3
Layout2
350
56
  3
Model
350
22
  0
DICTIONARY
  5
6A
102
{ACAD_REACTORS
330
C
102
}
330
C
100
AcDbDictionary
281
     1
  0
DICTIONARY
  5
17
102
{ACAD_REACTORS
330
C
102
}
330
C
100
AcDbDictionary
281
     1
  3
Standard
350
18
  0
DICTIONARY
  5
19
102
{ACAD_REACTORS
330
C
102
}
330
C
100
AcDbDictionary
281
     1
  0
ACDBDICTIONARYWDFLT
  5
E
102
{ACAD_REACTORS
330
C
102
}
330
C
100
AcDbDictionary
281
     1
  3
Normal
350
F
100
AcDbDictionaryWithDefault
340
F
  0
DICTIONARY
  5
304
102
{ACAD_REACTORS
330
C
102
}
330
C
100
AcDbDictionary
281
     1
  3
COLORDICT
350
306
  3
MATERIALDICT
350
305
  0
DICTIONARY
  5
5E
102
{ACAD_REACTORS
330
C
102
}
330
C
100
AcDbDictionary
281
     1
  3
DIMASSOC
350
5F
  3
HIDETEXT
350
63
  3
PROJECTNAME
350
81
  0
LAYOUT
  5
51
102
{ACAD_XDICTIONARY
360
309
102
}
102
{ACAD_REACTORS
330
1A
102
}
330
1A
100
AcDbPlotSettings
  1

  2
None
  4

  6

 40
0.0
 41
0.0
 42
0.0
 43
0.0
 44
0.0
 45
0.0
 46
0.0
 47
0.0
 48
0.0
 49
0.0
140
0.0
141
0.0
142
1.0
143
1.0
 70
   688
 72
     0
 73
     0
 74
     5
  7

 75
    16
147
1.0
148
0.0
149
0.0
100
AcDbLayout
  1
Layout1
 70
     1
 71
     1
 10
0.0
 20
0.0
 11
12.0
 21
9.0
 12
0.0
 22
0.0
 32
0.0
 14
0.0
 24
0.0
 34
0.0
 15
0.0
 25
0.0
 35
0.0
146
0.0
 13
0.0
 23
0.0
 33
0.0
 16
1.0
 26
0.0
 36
0.0
 17
0.0
 27
1.0
 37
0.0
 76
     0
330
50
  0
LAYOUT
  5
56
102
{ACAD_XDICTIONARY
360
30B
102
}
102
{ACAD_REACTORS
330
1A
102
}
330
1A
100
AcDbPlotSettings
  1

  2
None
  4

  6

 40
0.0
 41
0.0
 42
0.0
 43
0.0
 44
0.0
 45
0.0
 46
0.0
 47
0.0
 48
0.0
 49
0.0
140
0.0
141
0.0
142
1.0
143
1.0
 70
   688
 72
     0
 73
     0
 74
     5
  7

 75
    16
147
1.0
148
0.0
149
0.0
100
AcDbLayout
  1
Layout2
 70
     1
 71
     2
 10
0.0
 20
0.0
 11
12.0
 21
9.0
 12
0.0
 22
0.0
 32
0.0
 14
0.0
 24
0.0
 34
0.0
 15
0.0
 25
0.0
 35
0.0
146
0.0
 13
0.0
 23
0.0
 33
0.0
 16
1.0
 26
0.0
 36
0.0
 17
0.0
 27
1.0
 37
0.0
 76
     0
330
55
  0
LAYOUT
  5
22
102
{ACAD_XDICTIONARY
360
307
102
}
102
{ACAD_REACTORS
330
1A
102
}
330
1A
100
AcDbPlotSettings
  1

  2
none_device
  4
ANSI_A_(8.50_x_11.00_Inches)
  6

 40
6.349999904632567
 41
19.04999923706055
 42
6.350006103515625
 43
19.04998779296875
 44
215.8999938964844
 45
279.3999938964844
 46
0.0
 47
0.0
 48
0.0
 49
0.0
140
0.0
141
0.0
142
1.0
143
78.436453180766
 70
 11952
 72
     0
 73
     1
 74
     0
  7

 75
     0
147
0.0127491741332998
148
0.0
149
0.0
100
AcDbLayout
  1
Model
 70
     1
 71
     0
 10
0.0
 20
0.0
 11
12.0
 21
9.0
 12
0.0
 22
0.0
 32
0.0
 14
0.0
 24
0.0
 34
0.0
 15
0.0
 25
0.0
 35
0.0
146
0.0
 13
0.0
 23
0.0
 33
0.0
 16
1.0
 26
0.0
 36
0.0
 17
0.0
 27
1.0
 37
0.0
 76
     0
330
1F
  0
MLINESTYLE
  5
18
102
{ACAD_REACTORS
330
17
102
}
330
17
100
AcDbMlineStyle
  2
STANDARD
 70
     0
  3

 62
   256
 51
90.0
 52
90.0
 71
     2
 49
0.5
 62
   256
  6
BYLAYER
 49
-0.5
 62
   256
  6
BYLAYER
  0
ACDBPLACEHOLDER
  5
F
102
{ACAD_REACTORS
330
E
102
}
330
E
  0
XRECORD
  5
306
102
{ACAD_REACTORS
330
304
102
}
330
304
100
AcDbXrecord
280
     1
340
6B
  0
XRECORD
  5
305
102
{ACAD_REACTORS
330
304
102
}
330
304
100
AcDbXrecord
280
     1
340
6A
  0
DICTIONARYVAR
  5
5F
102
{ACAD_REACTORS
330
5E
102
}
330
5E
100
DictionaryVariables
280
     0
  1
2
  0
DICTIONARYVAR
  5
63
102
{ACAD_REACTORS
330
5E
102
}
330
5E
100
DictionaryVariables
280
     0
  1
1
  0
DICTIONARYVAR
  5
81
102
{ACAD_REACTORS
330
5E
102
}
330
5E
100
DictionaryVariables
280
     0
  1

  0
DICTIONARY
  5
309
330
51
100
AcDbDictionary
280
     1
281
     1
  3
ACAD_XREC_ROUNDTRIP
360
30A
  0
DICTIONARY
  5
30B
330
56
100
AcDbDictionary
280
     1
281
     1
  3
ACAD_XREC_ROUNDTRIP
360
30C
  0
DICTIONARY
  5
307
330
22
100
AcDbDictionary
280
     1
281
     1
  3
ACAD_XREC_ROUNDTRIP
360
308
  0
XRECORD
  5
30A
102
{ACAD_REACTORS
330
309
102
}
330
309
100
AcDbXrecord
280
     1
102
SHADEPLOT
 70
     0
102
SHADEPLOTRESLEVEL
 70
     2
102
SHADEPLOTCUSTOMDPI
 70
   300
  0
XRECORD
  5
30C
102
{ACAD_REACTORS
330
30B
102
}
330
30B
100
AcDbXrecord
280
     1
102
SHADEPLOT
 70
     0
102
SHADEPLOTRESLEVEL
 70
     2
102
SHADEPLOTCUSTOMDPI
 70
   300
  0
XRECORD
  5
308
102
{ACAD_REACTORS
330
307
102
}
330
307
100
AcDbXrecord
280
     1
102
SHADEPLOT
 70
     0
102
SHADEPLOTRESLEVEL
 70
     2
102
SHADEPLOTCUSTOMDPI
 70
   300
  0
ENDSEC
  0
EOF
