solid OpenSCAD_Model
  facet normal 0 0 -1
    outer loop
      vertex 20 9.5 5
      vertex 80 9.5 5
      vertex 80 8 5
    endloop
  endfacet
  facet normal 0 0 -1
    outer loop
      vertex 20 9.5 5
      vertex 80 8 5
      vertex 20 8 5
    endloop
  endfacet
  facet normal 0 -0 1
    outer loop
      vertex 80 8 20
      vertex 80 9.5 20
      vertex 20 9.5 20
    endloop
  endfacet
  facet normal 0 0 1
    outer loop
      vertex 20 8 20
      vertex 80 8 20
      vertex 20 9.5 20
    endloop
  endfacet
  facet normal 0 1 0
    outer loop
      vertex 20 9.5 5
      vertex 80 9.5 20
      vertex 80 9.5 5
    endloop
  endfacet
  facet normal 0 1 0
    outer loop
      vertex 20 9.5 5
      vertex 20 9.5 20
      vertex 80 9.5 20
    endloop
  endfacet
  facet normal -1 0 0
    outer loop
      vertex 20 8 5
      vertex 20 9.5 20
      vertex 20 9.5 5
    endloop
  endfacet
  facet normal -1 0 0
    outer loop
      vertex 20 8 5
      vertex 20 8 20
      vertex 20 9.5 20
    endloop
  endfacet
  facet normal 0 -1 0
    outer loop
      vertex 80 8 5
      vertex 20 8 20
      vertex 20 8 5
    endloop
  endfacet
  facet normal 0 -1 0
    outer loop
      vertex 80 8 5
      vertex 80 8 20
      vertex 20 8 20
    endloop
  endfacet
  facet normal 1 0 0
    outer loop
      vertex 80 9.5 5
      vertex 80 8 20
      vertex 80 8 5
    endloop
  endfacet
  facet normal 1 0 -0
    outer loop
      vertex 80 9.5 5
      vertex 80 9.5 20
      vertex 80 8 20
    endloop
  endfacet
endsolid OpenSCAD_Model
