solid OpenSCAD_Model
  facet normal 0 0 -1
    outer loop
      vertex -11.8252 72.5498 0
      vertex 83.7754 71.0498 0
      vertex -10.3252 71.0498 0
    endloop
  endfacet
  facet normal 0 -0 -1
    outer loop
      vertex 83.7754 33.9502 0
      vertex 85.2754 32.4502 0
      vertex -11.8252 32.4502 0
    endloop
  endfacet
  facet normal 0 0 -1
    outer loop
      vertex 85.2754 32.4502 0
      vertex 83.7754 33.9502 0
      vertex 83.7754 71.0498 0
    endloop
  endfacet
  facet normal 0 0 -1
    outer loop
      vertex 83.7754 71.0498 0
      vertex 85.2754 72.5498 0
      vertex 85.2754 32.4502 0
    endloop
  endfacet
  facet normal 0 0 -1
    outer loop
      vertex -11.8252 72.5498 0
      vertex -10.3252 33.9502 0
      vertex -11.8252 32.4502 0
    endloop
  endfacet
  facet normal 0 -0 -1
    outer loop
      vertex -10.3252 33.9502 0
      vertex 83.7754 33.9502 0
      vertex -11.8252 32.4502 0
    endloop
  endfacet
  facet normal 0 0 -1
    outer loop
      vertex -11.8252 72.5498 0
      vertex -10.3252 71.0498 0
      vertex -10.3252 33.9502 0
    endloop
  endfacet
  facet normal -0 0 -1
    outer loop
      vertex 85.2754 72.5498 0
      vertex 83.7754 71.0498 0
      vertex -11.8252 72.5498 0
    endloop
  endfacet
  facet normal 0 -0 1
    outer loop
      vertex -10.3252 71.0498 15
      vertex 83.7754 71.0498 15
      vertex -11.8252 72.5498 15
    endloop
  endfacet
  facet normal 0 0 1
    outer loop
      vertex -11.8252 32.4502 15
      vertex 85.2754 32.4502 15
      vertex 83.7754 33.9502 15
    endloop
  endfacet
  facet normal 0 0 1
    outer loop
      vertex 83.7754 71.0498 15
      vertex 83.7754 33.9502 15
      vertex 85.2754 32.4502 15
    endloop
  endfacet
  facet normal 0 -0 1
    outer loop
      vertex 85.2754 32.4502 15
      vertex 85.2754 72.5498 15
      vertex 83.7754 71.0498 15
    endloop
  endfacet
  facet normal 0 0 1
    outer loop
      vertex -11.8252 32.4502 15
      vertex -10.3252 33.9502 15
      vertex -11.8252 72.5498 15
    endloop
  endfacet
  facet normal 0 0 1
    outer loop
      vertex -11.8252 32.4502 15
      vertex 83.7754 33.9502 15
      vertex -10.3252 33.9502 15
    endloop
  endfacet
  facet normal 0 -0 1
    outer loop
      vertex -10.3252 33.9502 15
      vertex -10.3252 71.0498 15
      vertex -11.8252 72.5498 15
    endloop
  endfacet
  facet normal -0 0 1
    outer loop
      vertex -11.8252 72.5498 15
      vertex 83.7754 71.0498 15
      vertex 85.2754 72.5498 15
    endloop
  endfacet
  facet normal 0 1 0
    outer loop
      vertex -11.8252 72.5498 0
      vertex 85.2754 72.5498 15
      vertex 85.2754 72.5498 0
    endloop
  endfacet
  facet normal 0 1 0
    outer loop
      vertex -11.8252 72.5498 0
      vertex -11.8252 72.5498 15
      vertex 85.2754 72.5498 15
    endloop
  endfacet
  facet normal -1 0 0
    outer loop
      vertex -11.8252 32.4502 0
      vertex -11.8252 72.5498 15
      vertex -11.8252 72.5498 0
    endloop
  endfacet
  facet normal -1 0 0
    outer loop
      vertex -11.8252 32.4502 0
      vertex -11.8252 32.4502 15
      vertex -11.8252 72.5498 15
    endloop
  endfacet
  facet normal 0 -1 0
    outer loop
      vertex 85.2754 32.4502 0
      vertex -11.8252 32.4502 15
      vertex -11.8252 32.4502 0
    endloop
  endfacet
  facet normal 0 -1 0
    outer loop
      vertex 85.2754 32.4502 0
      vertex 85.2754 32.4502 15
      vertex -11.8252 32.4502 15
    endloop
  endfacet
  facet normal 1 0 0
    outer loop
      vertex 85.2754 72.5498 0
      vertex 85.2754 32.4502 15
      vertex 85.2754 32.4502 0
    endloop
  endfacet
  facet normal 1 0 -0
    outer loop
      vertex 85.2754 72.5498 0
      vertex 85.2754 72.5498 15
      vertex 85.2754 32.4502 15
    endloop
  endfacet
  facet normal 1 0 -0
    outer loop
      vertex -10.3252 71.0498 0
      vertex -10.3252 71.0498 15
      vertex -10.3252 33.9502 0
    endloop
  endfacet
  facet normal 1 -0 0
    outer loop
      vertex -10.3252 33.9502 15
      vertex -10.3252 33.9502 0
      vertex -10.3252 71.0498 15
    endloop
  endfacet
  facet normal 0 -1 0
    outer loop
      vertex 83.7754 71.0498 0
      vertex 83.7754 71.0498 15
      vertex -10.3252 71.0498 0
    endloop
  endfacet
  facet normal 0 -1 0
    outer loop
      vertex -10.3252 71.0498 15
      vertex -10.3252 71.0498 0
      vertex 83.7754 71.0498 15
    endloop
  endfacet
  facet normal -1 0 0
    outer loop
      vertex 83.7754 33.9502 0
      vertex 83.7754 33.9502 15
      vertex 83.7754 71.0498 0
    endloop
  endfacet
  facet normal -1 -0 -0
    outer loop
      vertex 83.7754 71.0498 15
      vertex 83.7754 71.0498 0
      vertex 83.7754 33.9502 15
    endloop
  endfacet
  facet normal 0 1 0
    outer loop
      vertex -10.3252 33.9502 0
      vertex -10.3252 33.9502 15
      vertex 83.7754 33.9502 0
    endloop
  endfacet
  facet normal 0 1 0
    outer loop
      vertex 83.7754 33.9502 15
      vertex 83.7754 33.9502 0
      vertex -10.3252 33.9502 15
    endloop
  endfacet
endsolid OpenSCAD_Model
